<svg xmlns="http://www.w3.org/2000/svg" xmlns:xlink="http://www.w3.org/1999/xlink" width="1600" zoomAndPan="magnify" viewBox="0 0 1200 675.000002" height="900" preserveAspectRatio="xMidYMid meet" version="1.0"><defs><g/><clipPath id="1ef33c3cb6"><path d="M 0.886719 0 L 1199.113281 0 L 1199.113281 674 L 0.886719 674 Z M 0.886719 0 " clip-rule="nonzero"/></clipPath></defs><g clip-path="url(#1ef33c3cb6)"><path fill="#ffffff" d="M 0.886719 0 L 1199.113281 0 L 1199.113281 674 L 0.886719 674 Z M 0.886719 0 " fill-opacity="1" fill-rule="nonzero"/><path fill="#eb7106" d="M 0.886719 0 L 1199.113281 0 L 1199.113281 674 L 0.886719 674 Z M 0.886719 0 " fill-opacity="1" fill-rule="nonzero"/></g><path fill="#ffffff" d="M 620.625 189.742188 C 563.886719 166.480469 527.605469 249.296875 581.875 283.507812 C 547.101562 268.675781 536.464844 216.589844 571.175781 191.675781 C 526.488281 192.816406 512.230469 247.871094 526.0625 282.816406 C 489.214844 213.160156 561.507812 145.808594 635.929688 193.304688 C 621.796875 173.566406 598.675781 160.703125 572.550781 160.703125 C 540.039062 160.703125 512.183594 180.617188 500.507812 208.910156 C 500.839844 205.015625 501.402344 201.113281 502.210938 197.210938 C 503.148438 192.679688 504.414062 188.160156 506.015625 183.679688 C 524.59375 131.765625 581.738281 104.742188 633.65625 123.324219 C 685.570312 141.902344 712.59375 199.046875 694.011719 250.964844 C 691.511719 257.957031 688.304688 264.5 684.511719 270.535156 C 625.527344 290.25 589.898438 262.359375 589.898438 262.359375 C 613.546875 296.441406 666.753906 282.628906 678.304688 279.316406 C 647.007812 294.457031 593.503906 290.574219 579.269531 253.574219 C 567.195312 222.179688 588.21875 181.179688 620.625 189.738281 Z M 699.949219 253.089844 C 719.703125 197.890625 690.972656 137.136719 635.777344 117.382812 C 580.578125 97.628906 519.824219 126.359375 500.070312 181.558594 C 480.316406 236.753906 509.046875 297.507812 564.246094 317.261719 C 619.441406 337.015625 680.195312 308.285156 699.949219 253.089844 Z M 699.949219 253.089844 " fill-opacity="1" fill-rule="evenodd"/><g fill="#ffffff" fill-opacity="1"><g transform="translate(314.611604, 464.656759)"><g><path d="M 28.1875 1.65625 C 25.207031 1.65625 22.296875 1.273438 19.453125 0.515625 C 16.609375 -0.242188 14.390625 -1.210938 12.796875 -2.390625 L 12.6875 -2.390625 L 13 0.734375 L 5.09375 0.734375 L 4.6875 -17.15625 L 11.4375 -17.15625 C 11.78125 -13.96875 13.460938 -11.28125 16.484375 -9.09375 C 19.503906 -6.914062 23.195312 -5.828125 27.5625 -5.828125 C 29.5 -5.828125 31.175781 -6.273438 32.59375 -7.171875 C 34.019531 -8.078125 34.734375 -9.363281 34.734375 -11.03125 C 34.734375 -12.269531 34.28125 -13.304688 33.375 -14.140625 C 32.476562 -14.972656 31.40625 -15.664062 30.15625 -16.21875 C 28.90625 -16.78125 26.410156 -17.785156 22.671875 -19.234375 C 18.234375 -20.972656 14.90625 -22.394531 12.6875 -23.5 C 10.46875 -24.613281 8.472656 -26.257812 6.703125 -28.4375 C 4.941406 -30.625 4.0625 -33.453125 4.0625 -36.921875 C 4.0625 -39.765625 4.769531 -42.453125 6.1875 -44.984375 C 7.601562 -47.515625 9.785156 -49.59375 12.734375 -51.21875 C 15.679688 -52.84375 19.304688 -53.65625 23.609375 -53.65625 C 25.617188 -53.65625 27.800781 -53.34375 30.15625 -52.71875 C 32.519531 -52.101562 34.5 -51.238281 36.09375 -50.125 L 36.1875 -50.125 L 36.09375 -53.140625 L 43.984375 -53.140625 L 43.984375 -34.734375 L 37.234375 -34.734375 C 36.609375 -38.335938 35.007812 -41.179688 32.4375 -43.265625 C 29.875 -45.347656 26.722656 -46.390625 22.984375 -46.390625 C 21.046875 -46.390625 19.414062 -45.9375 18.09375 -45.03125 C 16.78125 -44.132812 16.125 -42.75 16.125 -40.875 C 16.125 -38.925781 16.882812 -37.484375 18.40625 -36.546875 C 19.9375 -35.617188 22.503906 -34.566406 26.109375 -33.390625 C 26.523438 -33.316406 27.425781 -33.035156 28.8125 -32.546875 C 34.695312 -30.472656 39.21875 -28.046875 42.375 -25.265625 C 45.53125 -22.492188 47.109375 -18.859375 47.109375 -14.359375 C 47.109375 -10.890625 46.222656 -7.957031 44.453125 -5.5625 C 42.691406 -3.164062 40.367188 -1.363281 37.484375 -0.15625 C 34.609375 1.050781 31.507812 1.65625 28.1875 1.65625 Z M 28.1875 1.65625 "/></g></g></g><g fill="#ffffff" fill-opacity="1"><g transform="translate(360.89086, 464.656759)"><g><path d="M 24.859375 1.65625 C 14.035156 1.65625 8.625 -4.992188 8.625 -18.296875 L 8.84375 -43.375 L 1.765625 -43.375 L 1.765625 -52 C 3.984375 -52 6.082031 -52.691406 8.0625 -54.078125 C 10.039062 -55.460938 11.722656 -57.160156 13.109375 -59.171875 C 14.492188 -61.179688 15.460938 -63.125 16.015625 -65 L 23.71875 -65 L 23.609375 -52 L 36.8125 -52 L 36.8125 -43.984375 L 23.609375 -43.6875 L 23.5 -18.09375 C 23.5 -11.375 25.582031 -8.015625 29.75 -8.015625 C 33.070312 -8.015625 36.222656 -10.09375 39.203125 -14.25 L 44.203125 -9.5625 C 40.941406 -4.78125 37.679688 -1.710938 34.421875 -0.359375 C 31.160156 0.984375 27.972656 1.65625 24.859375 1.65625 Z M 24.859375 1.65625 "/></g></g></g><g fill="#ffffff" fill-opacity="1"><g transform="translate(399.68215, 464.656759)"><g><path d="M 17.265625 1.65625 C 12.898438 1.65625 9.453125 0.359375 6.921875 -2.234375 C 4.390625 -4.835938 3.125 -8.148438 3.125 -12.171875 C 3.125 -18.265625 5.960938 -22.890625 11.640625 -26.046875 C 17.328125 -29.203125 24.160156 -30.953125 32.140625 -31.296875 L 32.140625 -36.71875 C 32.140625 -43.019531 29.78125 -46.171875 25.0625 -46.171875 C 22.007812 -46.171875 19.515625 -45.203125 17.578125 -43.265625 C 18.410156 -42.296875 18.828125 -40.976562 18.828125 -39.3125 C 18.828125 -37.644531 18.253906 -36.148438 17.109375 -34.828125 C 15.960938 -33.515625 14.28125 -32.859375 12.0625 -32.859375 C 9.976562 -32.859375 8.347656 -33.535156 7.171875 -34.890625 C 5.992188 -36.242188 5.40625 -37.925781 5.40625 -39.9375 C 5.40625 -42.632812 6.375 -45.023438 8.3125 -47.109375 C 10.257812 -49.191406 12.910156 -50.800781 16.265625 -51.9375 C 19.628906 -53.082031 23.328125 -53.65625 27.359375 -53.65625 C 40.179688 -53.65625 46.59375 -47.035156 46.59375 -33.796875 L 46.484375 -16.75 C 46.484375 -13.414062 46.347656 -10.363281 46.078125 -7.59375 C 48.359375 -7.800781 50.609375 -7.90625 52.828125 -7.90625 L 52.828125 0 L 33.171875 0 C 33.035156 -0.90625 32.898438 -2.5 32.765625 -4.78125 L 32.65625 -4.78125 C 28.425781 -0.488281 23.296875 1.65625 17.265625 1.65625 Z M 23.8125 -8.53125 C 26.9375 -8.53125 29.675781 -9.773438 32.03125 -12.265625 L 32.03125 -23.921875 C 27.9375 -23.503906 24.554688 -22.460938 21.890625 -20.796875 C 19.222656 -19.128906 17.890625 -16.878906 17.890625 -14.046875 C 17.890625 -12.171875 18.457031 -10.78125 19.59375 -9.875 C 20.738281 -8.976562 22.144531 -8.53125 23.8125 -8.53125 Z M 23.8125 -8.53125 "/></g></g></g><g fill="#ffffff" fill-opacity="1"><g transform="translate(450.017364, 464.656759)"><g><path d="M 2.59375 -6.765625 C 5.226562 -6.765625 6.925781 -7.488281 7.6875 -8.9375 C 8.457031 -10.394531 8.84375 -12.753906 8.84375 -16.015625 L 8.84375 -58.765625 C 8.84375 -62.085938 8.976562 -65.101562 9.25 -67.8125 L 1.96875 -67.5 L 1.96875 -75.40625 C 6.34375 -75.40625 9.878906 -75.710938 12.578125 -76.328125 C 15.285156 -76.953125 17.054688 -77.679688 17.890625 -78.515625 L 23.609375 -78.515625 L 23.609375 -31.09375 L 28.59375 -31.09375 L 36.09375 -39.734375 C 38.238281 -42.160156 39.585938 -43.613281 40.140625 -44.09375 L 40.140625 -44.203125 L 34.625 -44.09375 L 34.625 -52 L 58.03125 -52 L 58.03125 -45.34375 C 54.707031 -45 51.882812 -44.082031 49.5625 -42.59375 C 47.238281 -41.101562 45.140625 -39.28125 43.265625 -37.125 L 36.609375 -29.75 L 36.609375 -29.640625 C 37.710938 -29.085938 38.765625 -28.34375 39.765625 -27.40625 C 40.773438 -26.46875 41.976562 -25.0625 43.375 -23.1875 L 50.34375 -14.046875 C 52.144531 -11.828125 53.738281 -10.054688 55.125 -8.734375 C 56.507812 -7.421875 58.101562 -6.765625 59.90625 -6.765625 L 59.90625 0 L 47.9375 0 C 45.863281 0 44.03125 -0.691406 42.4375 -2.078125 C 40.84375 -3.460938 38.832031 -5.785156 36.40625 -9.046875 C 33.769531 -12.585938 31.238281 -16.191406 28.8125 -19.859375 L 26 -23.8125 L 23.609375 -23.71875 L 23.609375 -16.75 C 23.609375 -13.414062 23.46875 -10.363281 23.1875 -7.59375 C 25.40625 -7.800781 27.660156 -7.90625 29.953125 -7.90625 L 29.953125 0 L 2.59375 0 Z M 2.59375 -6.765625 "/></g></g></g><g fill="#ffffff" fill-opacity="1"><g transform="translate(507.63251, 464.656759)"><g><path d="M 28.90625 1.65625 C 23.84375 1.65625 19.367188 0.53125 15.484375 -1.71875 C 11.609375 -3.96875 8.59375 -7.171875 6.4375 -11.328125 C 4.289062 -15.492188 3.21875 -20.347656 3.21875 -25.890625 C 3.21875 -30.742188 4.3125 -35.300781 6.5 -39.5625 C 8.6875 -43.832031 11.753906 -47.25 15.703125 -49.8125 C 19.648438 -52.375 24.15625 -53.65625 29.21875 -53.65625 C 35.945312 -53.65625 41.546875 -51.679688 46.015625 -47.734375 C 50.492188 -43.785156 52.695312 -37.195312 52.625 -27.96875 L 18.515625 -27.359375 C 18.515625 -21.253906 19.675781 -16.429688 22 -12.890625 C 24.320312 -9.359375 28.046875 -7.59375 33.171875 -7.59375 C 35.597656 -7.59375 38.195312 -8.21875 40.96875 -9.46875 C 43.75 -10.71875 46.25 -12.691406 48.46875 -15.390625 L 53.140625 -11.03125 C 47.242188 -2.570312 39.164062 1.65625 28.90625 1.65625 Z M 38.265625 -34.625 C 38.054688 -42.46875 35.21875 -46.390625 29.75 -46.390625 C 26.757812 -46.390625 24.378906 -45.332031 22.609375 -43.21875 C 20.847656 -41.101562 19.691406 -38.238281 19.140625 -34.625 Z M 38.265625 -34.625 "/></g></g></g><g fill="#ffffff" fill-opacity="1"><g transform="translate(559.423722, 464.656759)"><g/></g></g><g fill="#ffffff" fill-opacity="1"><g transform="translate(582.615128, 464.656759)"><g><path d="M 27.140625 1.65625 C 22.910156 1.65625 18.90625 0.960938 15.125 -0.421875 C 11.351562 -1.804688 8.285156 -3.953125 5.921875 -6.859375 C 3.566406 -9.773438 2.390625 -13.382812 2.390625 -17.6875 C 2.390625 -22.1875 3.894531 -26.253906 6.90625 -29.890625 C 9.925781 -33.535156 13.828125 -36.222656 18.609375 -37.953125 C 15.148438 -41.703125 12.847656 -45.050781 11.703125 -48 C 10.554688 -50.945312 10.019531 -54.046875 10.09375 -57.296875 C 10.15625 -62.566406 11.988281 -66.742188 15.59375 -69.828125 C 19.207031 -72.921875 23.992188 -74.46875 29.953125 -74.46875 C 33.484375 -74.46875 36.617188 -73.71875 39.359375 -72.21875 C 42.097656 -70.726562 44.226562 -68.734375 45.75 -66.234375 C 47.28125 -63.742188 48.046875 -61.046875 48.046875 -58.140625 C 48.046875 -54.117188 46.640625 -50.375 43.828125 -46.90625 C 41.023438 -43.4375 37.441406 -40.421875 33.078125 -37.859375 C 33.492188 -37.304688 35.503906 -35.242188 39.109375 -31.671875 C 42.710938 -28.097656 46.28125 -24.644531 49.8125 -21.3125 L 49.921875 -21.3125 C 50.265625 -22.707031 50.4375 -24.441406 50.4375 -26.515625 C 50.4375 -29.296875 49.984375 -31.273438 49.078125 -32.453125 C 48.179688 -33.628906 46.796875 -34.285156 44.921875 -34.421875 L 44.921875 -41.078125 L 62.40625 -41.078125 L 62.40625 -33.28125 C 61.5 -33.28125 59.59375 -33.421875 56.6875 -33.703125 L 56.6875 -33.59375 C 57.445312 -31.851562 57.828125 -29.738281 57.828125 -27.25 C 57.828125 -23.363281 57.164062 -19.617188 55.84375 -16.015625 L 57.40625 -14.65625 C 63.570312 -9.457031 67.835938 -6.859375 70.203125 -6.859375 L 70.203125 0 L 59.078125 0 C 58.453125 0 57.148438 -0.550781 55.171875 -1.65625 C 53.191406 -2.769531 51.09375 -4.191406 48.875 -5.921875 C 46.101562 -3.492188 42.878906 -1.625 39.203125 -0.3125 C 35.535156 1 31.515625 1.65625 27.140625 1.65625 Z M 28.390625 -43.375 C 30.890625 -45.238281 32.832031 -47.644531 34.21875 -50.59375 C 35.601562 -53.539062 36.296875 -56.226562 36.296875 -58.65625 C 36.296875 -61.21875 35.671875 -63.28125 34.421875 -64.84375 C 33.171875 -66.40625 31.507812 -67.1875 29.4375 -67.1875 C 27.425781 -67.1875 25.757812 -66.351562 24.4375 -64.6875 C 23.125 -63.019531 22.46875 -60.734375 22.46875 -57.828125 C 22.46875 -55.742188 23.035156 -53.332031 24.171875 -50.59375 C 25.316406 -47.851562 26.722656 -45.445312 28.390625 -43.375 Z M 30.46875 -5.71875 C 35.53125 -5.71875 39.863281 -7.347656 43.46875 -10.609375 L 38.265625 -15.28125 C 31.753906 -21.25 26.207031 -26.832031 21.625 -32.03125 C 19.820312 -30.570312 18.519531 -28.71875 17.71875 -26.46875 C 16.925781 -24.21875 16.53125 -22.15625 16.53125 -20.28125 C 16.53125 -15.632812 17.757812 -12.046875 20.21875 -9.515625 C 22.6875 -6.984375 26.101562 -5.71875 30.46875 -5.71875 Z M 30.46875 -5.71875 "/></g></g></g><g fill="#ffffff" fill-opacity="1"><g transform="translate(648.134219, 464.656759)"><g/></g></g><g fill="#ffffff" fill-opacity="1"><g transform="translate(671.325624, 464.656759)"><g><path d="M 28.90625 1.65625 C 23.84375 1.65625 19.367188 0.53125 15.484375 -1.71875 C 11.609375 -3.96875 8.59375 -7.171875 6.4375 -11.328125 C 4.289062 -15.492188 3.21875 -20.347656 3.21875 -25.890625 C 3.21875 -30.742188 4.3125 -35.300781 6.5 -39.5625 C 8.6875 -43.832031 11.753906 -47.25 15.703125 -49.8125 C 19.648438 -52.375 24.15625 -53.65625 29.21875 -53.65625 C 35.945312 -53.65625 41.546875 -51.679688 46.015625 -47.734375 C 50.492188 -43.785156 52.695312 -37.195312 52.625 -27.96875 L 18.515625 -27.359375 C 18.515625 -21.253906 19.675781 -16.429688 22 -12.890625 C 24.320312 -9.359375 28.046875 -7.59375 33.171875 -7.59375 C 35.597656 -7.59375 38.195312 -8.21875 40.96875 -9.46875 C 43.75 -10.71875 46.25 -12.691406 48.46875 -15.390625 L 53.140625 -11.03125 C 47.242188 -2.570312 39.164062 1.65625 28.90625 1.65625 Z M 38.265625 -34.625 C 38.054688 -42.46875 35.21875 -46.390625 29.75 -46.390625 C 26.757812 -46.390625 24.378906 -45.332031 22.609375 -43.21875 C 20.847656 -41.101562 19.691406 -38.238281 19.140625 -34.625 Z M 38.265625 -34.625 "/></g></g></g><g fill="#ffffff" fill-opacity="1"><g transform="translate(723.116836, 464.656759)"><g><path d="M 17.265625 1.65625 C 12.898438 1.65625 9.453125 0.359375 6.921875 -2.234375 C 4.390625 -4.835938 3.125 -8.148438 3.125 -12.171875 C 3.125 -18.265625 5.960938 -22.890625 11.640625 -26.046875 C 17.328125 -29.203125 24.160156 -30.953125 32.140625 -31.296875 L 32.140625 -36.71875 C 32.140625 -43.019531 29.78125 -46.171875 25.0625 -46.171875 C 22.007812 -46.171875 19.515625 -45.203125 17.578125 -43.265625 C 18.410156 -42.296875 18.828125 -40.976562 18.828125 -39.3125 C 18.828125 -37.644531 18.253906 -36.148438 17.109375 -34.828125 C 15.960938 -33.515625 14.28125 -32.859375 12.0625 -32.859375 C 9.976562 -32.859375 8.347656 -33.535156 7.171875 -34.890625 C 5.992188 -36.242188 5.40625 -37.925781 5.40625 -39.9375 C 5.40625 -42.632812 6.375 -45.023438 8.3125 -47.109375 C 10.257812 -49.191406 12.910156 -50.800781 16.265625 -51.9375 C 19.628906 -53.082031 23.328125 -53.65625 27.359375 -53.65625 C 40.179688 -53.65625 46.59375 -47.035156 46.59375 -33.796875 L 46.484375 -16.75 C 46.484375 -13.414062 46.347656 -10.363281 46.078125 -7.59375 C 48.359375 -7.800781 50.609375 -7.90625 52.828125 -7.90625 L 52.828125 0 L 33.171875 0 C 33.035156 -0.90625 32.898438 -2.5 32.765625 -4.78125 L 32.65625 -4.78125 C 28.425781 -0.488281 23.296875 1.65625 17.265625 1.65625 Z M 23.8125 -8.53125 C 26.9375 -8.53125 29.675781 -9.773438 32.03125 -12.265625 L 32.03125 -23.921875 C 27.9375 -23.503906 24.554688 -22.460938 21.890625 -20.796875 C 19.222656 -19.128906 17.890625 -16.878906 17.890625 -14.046875 C 17.890625 -12.171875 18.457031 -10.78125 19.59375 -9.875 C 20.738281 -8.976562 22.144531 -8.53125 23.8125 -8.53125 Z M 23.8125 -8.53125 "/></g></g></g><g fill="#ffffff" fill-opacity="1"><g transform="translate(773.45205, 464.656759)"><g><path d="M 4.265625 -6.765625 C 6.898438 -6.765625 8.582031 -7.488281 9.3125 -8.9375 C 10.039062 -10.394531 10.40625 -12.753906 10.40625 -16.015625 L 10.40625 -33.484375 C 10.40625 -36.609375 10.539062 -39.554688 10.8125 -42.328125 L 3.53125 -42.015625 L 3.53125 -49.921875 C 7.90625 -49.921875 11.441406 -50.234375 14.140625 -50.859375 C 16.847656 -51.484375 18.648438 -52.210938 19.546875 -53.046875 L 24.640625 -53.046875 C 24.785156 -52.003906 24.890625 -50.648438 24.953125 -48.984375 C 25.023438 -47.316406 25.0625 -45.6875 25.0625 -44.09375 L 25.265625 -44.09375 C 29.984375 -50.46875 34.976562 -53.65625 40.25 -53.65625 C 42.882812 -53.65625 45.050781 -52.925781 46.75 -51.46875 C 48.445312 -50.019531 49.296875 -47.875 49.296875 -45.03125 C 49.296875 -43.226562 48.707031 -41.5625 47.53125 -40.03125 C 46.351562 -38.507812 44.582031 -37.75 42.21875 -37.75 C 40.488281 -37.75 38.945312 -38.195312 37.59375 -39.09375 C 36.238281 -40 35.457031 -41.5625 35.25 -43.78125 C 33.3125 -43.78125 31.316406 -42.65625 29.265625 -40.40625 C 27.222656 -38.15625 25.859375 -35.921875 25.171875 -33.703125 L 25.171875 -16.75 C 25.171875 -13.414062 25.03125 -10.363281 24.75 -7.59375 C 26.96875 -7.800781 29.222656 -7.90625 31.515625 -7.90625 L 31.515625 0 L 4.265625 0 Z M 4.265625 -6.765625 "/></g></g></g><g fill="#ffffff" fill-opacity="1"><g transform="translate(819.211296, 464.656759)"><g><path d="M 4.265625 -6.765625 C 6.898438 -6.765625 8.582031 -7.488281 9.3125 -8.9375 C 10.039062 -10.394531 10.40625 -12.753906 10.40625 -16.015625 L 10.40625 -33.484375 C 10.40625 -36.609375 10.539062 -39.554688 10.8125 -42.328125 L 3.53125 -42.015625 L 3.53125 -49.921875 C 7.90625 -49.921875 11.441406 -50.234375 14.140625 -50.859375 C 16.847656 -51.484375 18.648438 -52.210938 19.546875 -53.046875 L 24.640625 -53.046875 C 24.640625 -52.898438 24.78125 -51.164062 25.0625 -47.84375 L 25.265625 -47.84375 C 27.273438 -49.4375 29.753906 -50.800781 32.703125 -51.9375 C 35.648438 -53.082031 38.164062 -53.65625 40.25 -53.65625 C 46.5625 -53.65625 51.066406 -51.851562 53.765625 -48.25 C 56.472656 -44.644531 57.828125 -38.789062 57.828125 -30.6875 L 57.828125 -16.75 C 57.828125 -13.414062 57.6875 -10.363281 57.40625 -7.59375 C 59.695312 -7.800781 61.953125 -7.90625 64.171875 -7.90625 L 64.171875 0 L 36.921875 0 L 36.921875 -6.765625 C 39.554688 -6.765625 41.253906 -7.488281 42.015625 -8.9375 C 42.773438 -10.394531 43.15625 -12.753906 43.15625 -16.015625 L 43.0625 -30.78125 C 43.0625 -35.351562 42.414062 -38.710938 41.125 -40.859375 C 39.84375 -43.015625 37.675781 -44.09375 34.625 -44.09375 C 32.96875 -44.09375 31.269531 -43.726562 29.53125 -43 C 27.800781 -42.269531 26.347656 -41.351562 25.171875 -40.25 L 25.171875 -16.75 C 25.171875 -13.414062 25.03125 -10.363281 24.75 -7.59375 C 26.96875 -7.800781 29.222656 -7.90625 31.515625 -7.90625 L 31.515625 0 L 4.265625 0 Z M 4.265625 -6.765625 "/></g></g></g></svg>