<svg xmlns="http://www.w3.org/2000/svg" xmlns:xlink="http://www.w3.org/1999/xlink" width="1600" zoomAndPan="magnify" viewBox="0 0 1200 675.000002" height="900" preserveAspectRatio="xMidYMid meet" version="1.0"><defs><g/><clipPath id="be8ea9907e"><path d="M 0.886719 0 L 1199.113281 0 L 1199.113281 674 L 0.886719 674 Z M 0.886719 0 " clip-rule="nonzero"/></clipPath></defs><g clip-path="url(#be8ea9907e)"><path fill="#ffffff" d="M 0.886719 0 L 1199.113281 0 L 1199.113281 674 L 0.886719 674 Z M 0.886719 0 " fill-opacity="1" fill-rule="nonzero"/><path fill="#eb7106" d="M 0.886719 0 L 1199.113281 0 L 1199.113281 674 L 0.886719 674 Z M 0.886719 0 " fill-opacity="1" fill-rule="nonzero"/></g><path fill="#ffffff" d="M 620.625 189.742188 C 563.886719 166.480469 527.605469 249.296875 581.875 283.507812 C 547.101562 268.675781 536.464844 216.589844 571.175781 191.675781 C 526.488281 192.816406 512.230469 247.871094 526.0625 282.816406 C 489.214844 213.160156 561.507812 145.808594 635.929688 193.304688 C 621.796875 173.566406 598.675781 160.703125 572.550781 160.703125 C 540.039062 160.703125 512.183594 180.617188 500.507812 208.910156 C 500.839844 205.015625 501.402344 201.113281 502.210938 197.210938 C 503.148438 192.679688 504.414062 188.160156 506.015625 183.679688 C 524.59375 131.765625 581.738281 104.742188 633.65625 123.324219 C 685.570312 141.902344 712.59375 199.046875 694.011719 250.964844 C 691.511719 257.957031 688.304688 264.5 684.511719 270.535156 C 625.527344 290.25 589.898438 262.359375 589.898438 262.359375 C 613.546875 296.441406 666.753906 282.628906 678.304688 279.316406 C 647.007812 294.457031 593.503906 290.574219 579.269531 253.574219 C 567.195312 222.179688 588.21875 181.179688 620.625 189.738281 Z M 699.949219 253.089844 C 719.703125 197.890625 690.972656 137.136719 635.777344 117.382812 C 580.578125 97.628906 519.824219 126.359375 500.070312 181.558594 C 480.316406 236.753906 509.046875 297.507812 564.246094 317.261719 C 619.441406 337.015625 680.195312 308.285156 699.949219 253.089844 Z M 699.949219 253.089844 " fill-opacity="1" fill-rule="evenodd"/><g fill="#ffffff" fill-opacity="1"><g transform="translate(203.055239, 468.968145)"><g><path d="M 28.8125 1.65625 C 24.09375 1.65625 19.789062 0.597656 15.90625 -1.515625 C 12.03125 -3.628906 8.945312 -6.675781 6.65625 -10.65625 C 4.363281 -14.644531 3.21875 -19.378906 3.21875 -24.859375 C 3.21875 -30.054688 4.363281 -34.851562 6.65625 -39.25 C 8.945312 -43.65625 12.15625 -47.15625 16.28125 -49.75 C 20.40625 -52.351562 25.066406 -53.65625 30.265625 -53.65625 C 34.492188 -53.65625 38.113281 -53 41.125 -51.6875 C 44.144531 -50.375 46.414062 -48.625 47.9375 -46.4375 C 49.46875 -44.25 50.234375 -41.910156 50.234375 -39.421875 C 50.234375 -37.265625 49.59375 -35.421875 48.3125 -33.890625 C 47.03125 -32.367188 45.28125 -31.609375 43.0625 -31.609375 C 40.769531 -31.609375 39.050781 -32.300781 37.90625 -33.6875 C 36.757812 -35.082031 36.1875 -36.644531 36.1875 -38.375 C 36.1875 -39.96875 36.601562 -41.492188 37.4375 -42.953125 C 36.8125 -44.203125 35.804688 -45.085938 34.421875 -45.609375 C 33.035156 -46.128906 31.648438 -46.390625 30.265625 -46.390625 C 26.722656 -46.390625 23.859375 -44.773438 21.671875 -41.546875 C 19.492188 -38.328125 18.40625 -33.769531 18.40625 -27.875 C 18.40625 -21.976562 19.546875 -17.125 21.828125 -13.3125 C 24.117188 -9.5 27.726562 -7.59375 32.65625 -7.59375 C 35.425781 -7.59375 38.160156 -8.316406 40.859375 -9.765625 C 43.566406 -11.222656 45.859375 -13.164062 47.734375 -15.59375 L 52.515625 -10.921875 C 49.046875 -6.140625 45.335938 -2.847656 41.390625 -1.046875 C 37.441406 0.753906 33.25 1.65625 28.8125 1.65625 Z M 28.8125 1.65625 "/></g></g></g><g fill="#ffffff" fill-opacity="1"><g transform="translate(252.766441, 468.968145)"><g><path d="M 2.59375 -6.765625 C 4.46875 -6.765625 5.835938 -7.125 6.703125 -7.84375 C 7.578125 -8.570312 8.132812 -9.5625 8.375 -10.8125 C 8.613281 -12.0625 8.734375 -13.796875 8.734375 -16.015625 L 8.734375 -58.765625 C 8.734375 -62.085938 8.875 -65.101562 9.15625 -67.8125 L 1.875 -67.5 L 1.875 -75.40625 C 6.238281 -75.40625 9.769531 -75.710938 12.46875 -76.328125 C 15.175781 -76.953125 16.984375 -77.679688 17.890625 -78.515625 L 23.5 -78.515625 L 23.5 -16.75 C 23.5 -13.414062 23.363281 -10.363281 23.09375 -7.59375 C 25.375 -7.800781 27.625 -7.90625 29.84375 -7.90625 L 29.84375 0 L 2.59375 0 Z M 2.59375 -6.765625 "/></g></g></g><g fill="#ffffff" fill-opacity="1"><g transform="translate(281.053826, 468.968145)"><g><path d="M 17.265625 1.65625 C 12.898438 1.65625 9.453125 0.359375 6.921875 -2.234375 C 4.390625 -4.835938 3.125 -8.148438 3.125 -12.171875 C 3.125 -18.265625 5.960938 -22.890625 11.640625 -26.046875 C 17.328125 -29.203125 24.160156 -30.953125 32.140625 -31.296875 L 32.140625 -36.71875 C 32.140625 -43.019531 29.78125 -46.171875 25.0625 -46.171875 C 22.007812 -46.171875 19.515625 -45.203125 17.578125 -43.265625 C 18.410156 -42.296875 18.828125 -40.976562 18.828125 -39.3125 C 18.828125 -37.644531 18.253906 -36.148438 17.109375 -34.828125 C 15.960938 -33.515625 14.28125 -32.859375 12.0625 -32.859375 C 9.976562 -32.859375 8.347656 -33.535156 7.171875 -34.890625 C 5.992188 -36.242188 5.40625 -37.925781 5.40625 -39.9375 C 5.40625 -42.632812 6.375 -45.023438 8.3125 -47.109375 C 10.257812 -49.191406 12.910156 -50.800781 16.265625 -51.9375 C 19.628906 -53.082031 23.328125 -53.65625 27.359375 -53.65625 C 40.179688 -53.65625 46.59375 -47.035156 46.59375 -33.796875 L 46.484375 -16.75 C 46.484375 -13.414062 46.347656 -10.363281 46.078125 -7.59375 C 48.359375 -7.800781 50.609375 -7.90625 52.828125 -7.90625 L 52.828125 0 L 33.171875 0 C 33.035156 -0.90625 32.898438 -2.5 32.765625 -4.78125 L 32.65625 -4.78125 C 28.425781 -0.488281 23.296875 1.65625 17.265625 1.65625 Z M 23.8125 -8.53125 C 26.9375 -8.53125 29.675781 -9.773438 32.03125 -12.265625 L 32.03125 -23.921875 C 27.9375 -23.503906 24.554688 -22.460938 21.890625 -20.796875 C 19.222656 -19.128906 17.890625 -16.878906 17.890625 -14.046875 C 17.890625 -12.171875 18.457031 -10.78125 19.59375 -9.875 C 20.738281 -8.976562 22.144531 -8.53125 23.8125 -8.53125 Z M 23.8125 -8.53125 "/></g></g></g><g fill="#ffffff" fill-opacity="1"><g transform="translate(331.38904, 468.968145)"><g><path d="M 18.921875 -62.296875 C 16.566406 -62.296875 14.625 -63.109375 13.09375 -64.734375 C 11.570312 -66.367188 10.8125 -68.363281 10.8125 -70.71875 C 10.8125 -73.070312 11.609375 -75.097656 13.203125 -76.796875 C 14.796875 -78.503906 16.671875 -79.359375 18.828125 -79.359375 C 21.046875 -79.359375 22.898438 -78.523438 24.390625 -76.859375 C 25.878906 -75.191406 26.625 -73.144531 26.625 -70.71875 C 26.625 -68.289062 25.910156 -66.28125 24.484375 -64.6875 C 23.066406 -63.09375 21.210938 -62.296875 18.921875 -62.296875 Z M 4.265625 -6.765625 C 6.898438 -6.765625 8.582031 -7.488281 9.3125 -8.9375 C 10.039062 -10.394531 10.40625 -12.753906 10.40625 -16.015625 L 10.40625 -33.28125 C 10.40625 -36.539062 10.539062 -39.554688 10.8125 -42.328125 L 3.53125 -42.015625 L 3.53125 -49.921875 C 7.90625 -49.921875 11.441406 -50.234375 14.140625 -50.859375 C 16.847656 -51.484375 18.648438 -52.210938 19.546875 -53.046875 L 25.171875 -53.046875 L 25.171875 -16.75 C 25.171875 -13.414062 25.03125 -10.363281 24.75 -7.59375 C 26.96875 -7.800781 29.222656 -7.90625 31.515625 -7.90625 L 31.515625 0 L 4.265625 0 Z M 4.265625 -6.765625 "/></g></g></g><g fill="#ffffff" fill-opacity="1"><g transform="translate(361.236395, 468.968145)"><g><path d="M 4.265625 -6.765625 C 6.898438 -6.765625 8.582031 -7.488281 9.3125 -8.9375 C 10.039062 -10.394531 10.40625 -12.753906 10.40625 -16.015625 L 10.40625 -33.484375 C 10.40625 -36.609375 10.539062 -39.554688 10.8125 -42.328125 L 3.53125 -42.015625 L 3.53125 -49.921875 C 7.90625 -49.921875 11.441406 -50.234375 14.140625 -50.859375 C 16.847656 -51.484375 18.648438 -52.210938 19.546875 -53.046875 L 24.640625 -53.046875 C 24.640625 -52.898438 24.78125 -51.164062 25.0625 -47.84375 L 25.265625 -47.84375 C 27.421875 -49.570312 29.847656 -50.972656 32.546875 -52.046875 C 35.253906 -53.117188 37.890625 -53.65625 40.453125 -53.65625 C 43.578125 -53.65625 46.195312 -53.082031 48.3125 -51.9375 C 50.425781 -50.800781 52.109375 -49.085938 53.359375 -46.796875 C 55.847656 -48.878906 58.617188 -50.539062 61.671875 -51.78125 C 64.722656 -53.03125 67.597656 -53.65625 70.296875 -53.65625 C 76.054688 -53.65625 80.335938 -51.992188 83.140625 -48.671875 C 85.953125 -45.347656 87.359375 -39.800781 87.359375 -32.03125 L 87.359375 -16.75 C 87.359375 -13.414062 87.21875 -10.363281 86.9375 -7.59375 C 89.15625 -7.800781 91.410156 -7.90625 93.703125 -7.90625 L 93.703125 0 L 67.390625 0 L 67.390625 -6.765625 C 69.609375 -6.765625 71.03125 -7.507812 71.65625 -9 C 72.28125 -10.488281 72.59375 -12.828125 72.59375 -16.015625 L 72.59375 -31.921875 C 72.519531 -36.296875 71.789062 -39.398438 70.40625 -41.234375 C 69.019531 -43.066406 67.007812 -43.984375 64.375 -43.984375 C 61.320312 -43.984375 58.34375 -42.84375 55.4375 -40.5625 C 56.0625 -37.789062 56.375 -34.5 56.375 -30.6875 L 56.375 -16.75 C 56.375 -13.414062 56.234375 -10.363281 55.953125 -7.59375 C 58.171875 -7.800781 60.425781 -7.90625 62.71875 -7.90625 L 62.71875 0 L 35.875 0 L 35.875 -6.765625 C 38.300781 -6.765625 39.859375 -7.488281 40.546875 -8.9375 C 41.242188 -10.394531 41.59375 -12.753906 41.59375 -16.015625 L 41.5 -32.234375 C 41.5 -36.535156 40.875 -39.566406 39.625 -41.328125 C 38.375 -43.097656 36.503906 -44.019531 34.015625 -44.09375 C 30.960938 -44.09375 28.015625 -42.8125 25.171875 -40.25 L 25.171875 -16.75 C 25.171875 -13.414062 25.03125 -10.363281 24.75 -7.59375 C 26.96875 -7.800781 29.046875 -7.90625 30.984375 -7.90625 L 30.984375 0 L 4.265625 0 Z M 4.265625 -6.765625 "/></g></g></g><g fill="#ffffff" fill-opacity="1"><g transform="translate(452.755303, 468.968145)"><g/></g></g><g fill="#ffffff" fill-opacity="1"><g transform="translate(475.946708, 468.968145)"><g><path d="M 24.859375 1.65625 C 14.035156 1.65625 8.625 -4.992188 8.625 -18.296875 L 8.84375 -43.375 L 1.765625 -43.375 L 1.765625 -52 C 3.984375 -52 6.082031 -52.691406 8.0625 -54.078125 C 10.039062 -55.460938 11.722656 -57.160156 13.109375 -59.171875 C 14.492188 -61.179688 15.460938 -63.125 16.015625 -65 L 23.71875 -65 L 23.609375 -52 L 36.8125 -52 L 36.8125 -43.984375 L 23.609375 -43.6875 L 23.5 -18.09375 C 23.5 -11.375 25.582031 -8.015625 29.75 -8.015625 C 33.070312 -8.015625 36.222656 -10.09375 39.203125 -14.25 L 44.203125 -9.5625 C 40.941406 -4.78125 37.679688 -1.710938 34.421875 -0.359375 C 31.160156 0.984375 27.972656 1.65625 24.859375 1.65625 Z M 24.859375 1.65625 "/></g></g></g><g fill="#ffffff" fill-opacity="1"><g transform="translate(514.737998, 468.968145)"><g><path d="M 2.59375 -6.765625 C 4.46875 -6.765625 5.835938 -7.125 6.703125 -7.84375 C 7.578125 -8.570312 8.132812 -9.5625 8.375 -10.8125 C 8.613281 -12.0625 8.734375 -13.796875 8.734375 -16.015625 L 8.734375 -58.765625 C 8.734375 -62.085938 8.875 -65.101562 9.15625 -67.8125 L 1.875 -67.5 L 1.875 -75.40625 C 6.238281 -75.40625 9.769531 -75.710938 12.46875 -76.328125 C 15.175781 -76.953125 16.984375 -77.679688 17.890625 -78.515625 L 23.5 -78.515625 L 23.5 -47.84375 C 25.507812 -49.4375 28.003906 -50.800781 30.984375 -51.9375 C 33.972656 -53.082031 36.539062 -53.65625 38.6875 -53.65625 C 44.925781 -53.65625 49.394531 -51.851562 52.09375 -48.25 C 54.800781 -44.644531 56.191406 -38.789062 56.265625 -30.6875 L 56.265625 -16.75 C 56.265625 -13.414062 56.125 -10.363281 55.84375 -7.59375 C 58.0625 -7.800781 60.316406 -7.90625 62.609375 -7.90625 L 62.609375 0 L 35.25 0 L 35.25 -6.765625 C 37.882812 -6.765625 39.582031 -7.488281 40.34375 -8.9375 C 41.113281 -10.394531 41.5 -12.753906 41.5 -16.015625 L 41.390625 -30.78125 C 41.390625 -35.351562 40.710938 -38.710938 39.359375 -40.859375 C 38.015625 -43.015625 35.882812 -44.09375 32.96875 -44.09375 C 31.300781 -44.09375 29.597656 -43.726562 27.859375 -43 C 26.128906 -42.269531 24.675781 -41.351562 23.5 -40.25 L 23.5 -16.75 C 23.5 -13.414062 23.363281 -10.363281 23.09375 -7.59375 C 25.375 -7.800781 27.625 -7.90625 29.84375 -7.90625 L 29.84375 0 L 2.59375 0 Z M 2.59375 -6.765625 "/></g></g></g><g fill="#ffffff" fill-opacity="1"><g transform="translate(575.161139, 468.968145)"><g><path d="M 28.90625 1.65625 C 23.84375 1.65625 19.367188 0.53125 15.484375 -1.71875 C 11.609375 -3.96875 8.59375 -7.171875 6.4375 -11.328125 C 4.289062 -15.492188 3.21875 -20.347656 3.21875 -25.890625 C 3.21875 -30.742188 4.3125 -35.300781 6.5 -39.5625 C 8.6875 -43.832031 11.753906 -47.25 15.703125 -49.8125 C 19.648438 -52.375 24.15625 -53.65625 29.21875 -53.65625 C 35.945312 -53.65625 41.546875 -51.679688 46.015625 -47.734375 C 50.492188 -43.785156 52.695312 -37.195312 52.625 -27.96875 L 18.515625 -27.359375 C 18.515625 -21.253906 19.675781 -16.429688 22 -12.890625 C 24.320312 -9.359375 28.046875 -7.59375 33.171875 -7.59375 C 35.597656 -7.59375 38.195312 -8.21875 40.96875 -9.46875 C 43.75 -10.71875 46.25 -12.691406 48.46875 -15.390625 L 53.140625 -11.03125 C 47.242188 -2.570312 39.164062 1.65625 28.90625 1.65625 Z M 38.265625 -34.625 C 38.054688 -42.46875 35.21875 -46.390625 29.75 -46.390625 C 26.757812 -46.390625 24.378906 -45.332031 22.609375 -43.21875 C 20.847656 -41.101562 19.691406 -38.238281 19.140625 -34.625 Z M 38.265625 -34.625 "/></g></g></g><g fill="#ffffff" fill-opacity="1"><g transform="translate(626.952351, 468.968145)"><g/></g></g><g fill="#ffffff" fill-opacity="1"><g transform="translate(650.143756, 468.968145)"><g><path d="M 17.265625 1.65625 C 12.898438 1.65625 9.453125 0.359375 6.921875 -2.234375 C 4.390625 -4.835938 3.125 -8.148438 3.125 -12.171875 C 3.125 -18.265625 5.960938 -22.890625 11.640625 -26.046875 C 17.328125 -29.203125 24.160156 -30.953125 32.140625 -31.296875 L 32.140625 -36.71875 C 32.140625 -43.019531 29.78125 -46.171875 25.0625 -46.171875 C 22.007812 -46.171875 19.515625 -45.203125 17.578125 -43.265625 C 18.410156 -42.296875 18.828125 -40.976562 18.828125 -39.3125 C 18.828125 -37.644531 18.253906 -36.148438 17.109375 -34.828125 C 15.960938 -33.515625 14.28125 -32.859375 12.0625 -32.859375 C 9.976562 -32.859375 8.347656 -33.535156 7.171875 -34.890625 C 5.992188 -36.242188 5.40625 -37.925781 5.40625 -39.9375 C 5.40625 -42.632812 6.375 -45.023438 8.3125 -47.109375 C 10.257812 -49.191406 12.910156 -50.800781 16.265625 -51.9375 C 19.628906 -53.082031 23.328125 -53.65625 27.359375 -53.65625 C 40.179688 -53.65625 46.59375 -47.035156 46.59375 -33.796875 L 46.484375 -16.75 C 46.484375 -13.414062 46.347656 -10.363281 46.078125 -7.59375 C 48.359375 -7.800781 50.609375 -7.90625 52.828125 -7.90625 L 52.828125 0 L 33.171875 0 C 33.035156 -0.90625 32.898438 -2.5 32.765625 -4.78125 L 32.65625 -4.78125 C 28.425781 -0.488281 23.296875 1.65625 17.265625 1.65625 Z M 23.8125 -8.53125 C 26.9375 -8.53125 29.675781 -9.773438 32.03125 -12.265625 L 32.03125 -23.921875 C 27.9375 -23.503906 24.554688 -22.460938 21.890625 -20.796875 C 19.222656 -19.128906 17.890625 -16.878906 17.890625 -14.046875 C 17.890625 -12.171875 18.457031 -10.78125 19.59375 -9.875 C 20.738281 -8.976562 22.144531 -8.53125 23.8125 -8.53125 Z M 23.8125 -8.53125 "/></g></g></g><g fill="#ffffff" fill-opacity="1"><g transform="translate(700.478971, 468.968145)"><g><path d="M 18.921875 -62.296875 C 16.566406 -62.296875 14.625 -63.109375 13.09375 -64.734375 C 11.570312 -66.367188 10.8125 -68.363281 10.8125 -70.71875 C 10.8125 -73.070312 11.609375 -75.097656 13.203125 -76.796875 C 14.796875 -78.503906 16.671875 -79.359375 18.828125 -79.359375 C 21.046875 -79.359375 22.898438 -78.523438 24.390625 -76.859375 C 25.878906 -75.191406 26.625 -73.144531 26.625 -70.71875 C 26.625 -68.289062 25.910156 -66.28125 24.484375 -64.6875 C 23.066406 -63.09375 21.210938 -62.296875 18.921875 -62.296875 Z M 4.265625 -6.765625 C 6.898438 -6.765625 8.582031 -7.488281 9.3125 -8.9375 C 10.039062 -10.394531 10.40625 -12.753906 10.40625 -16.015625 L 10.40625 -33.28125 C 10.40625 -36.539062 10.539062 -39.554688 10.8125 -42.328125 L 3.53125 -42.015625 L 3.53125 -49.921875 C 7.90625 -49.921875 11.441406 -50.234375 14.140625 -50.859375 C 16.847656 -51.484375 18.648438 -52.210938 19.546875 -53.046875 L 25.171875 -53.046875 L 25.171875 -16.75 C 25.171875 -13.414062 25.03125 -10.363281 24.75 -7.59375 C 26.96875 -7.800781 29.222656 -7.90625 31.515625 -7.90625 L 31.515625 0 L 4.265625 0 Z M 4.265625 -6.765625 "/></g></g></g><g fill="#ffffff" fill-opacity="1"><g transform="translate(730.326296, 468.968145)"><g><path d="M 4.265625 -6.765625 C 6.898438 -6.765625 8.582031 -7.488281 9.3125 -8.9375 C 10.039062 -10.394531 10.40625 -12.753906 10.40625 -16.015625 L 10.40625 -33.484375 C 10.40625 -36.609375 10.539062 -39.554688 10.8125 -42.328125 L 3.53125 -42.015625 L 3.53125 -49.921875 C 7.90625 -49.921875 11.441406 -50.234375 14.140625 -50.859375 C 16.847656 -51.484375 18.648438 -52.210938 19.546875 -53.046875 L 24.640625 -53.046875 C 24.785156 -52.003906 24.890625 -50.648438 24.953125 -48.984375 C 25.023438 -47.316406 25.0625 -45.6875 25.0625 -44.09375 L 25.265625 -44.09375 C 29.984375 -50.46875 34.976562 -53.65625 40.25 -53.65625 C 42.882812 -53.65625 45.050781 -52.925781 46.75 -51.46875 C 48.445312 -50.019531 49.296875 -47.875 49.296875 -45.03125 C 49.296875 -43.226562 48.707031 -41.5625 47.53125 -40.03125 C 46.351562 -38.507812 44.582031 -37.75 42.21875 -37.75 C 40.488281 -37.75 38.945312 -38.195312 37.59375 -39.09375 C 36.238281 -40 35.457031 -41.5625 35.25 -43.78125 C 33.3125 -43.78125 31.316406 -42.65625 29.265625 -40.40625 C 27.222656 -38.15625 25.859375 -35.921875 25.171875 -33.703125 L 25.171875 -16.75 C 25.171875 -13.414062 25.03125 -10.363281 24.75 -7.59375 C 26.96875 -7.800781 29.222656 -7.90625 31.515625 -7.90625 L 31.515625 0 L 4.265625 0 Z M 4.265625 -6.765625 "/></g></g></g><g fill="#ffffff" fill-opacity="1"><g transform="translate(776.085511, 468.968145)"><g><path d="M 24.34375 1.65625 C 20.175781 1.65625 16.515625 0.582031 13.359375 -1.5625 C 10.203125 -3.707031 7.738281 -6.773438 5.96875 -10.765625 C 4.207031 -14.753906 3.328125 -19.378906 3.328125 -24.640625 C 3.328125 -30.191406 4.398438 -35.164062 6.546875 -39.5625 C 8.703125 -43.96875 11.738281 -47.414062 15.65625 -49.90625 C 19.570312 -52.40625 24.0625 -53.65625 29.125 -53.65625 C 31.820312 -53.65625 34.90625 -53.035156 38.375 -51.796875 L 38.375 -58.65625 C 38.375 -61.976562 38.515625 -65.03125 38.796875 -67.8125 C 36.503906 -67.601562 34.039062 -67.5 31.40625 -67.5 L 31.40625 -75.40625 C 35.769531 -75.40625 39.304688 -75.710938 42.015625 -76.328125 C 44.722656 -76.953125 46.523438 -77.679688 47.421875 -78.515625 L 53.046875 -78.515625 L 53.046875 -16.75 C 53.046875 -13.414062 52.90625 -10.363281 52.625 -7.59375 C 54.914062 -7.800781 57.171875 -7.90625 59.390625 -7.90625 L 59.390625 0 L 39.625 0 L 39.109375 -4.78125 L 39 -4.78125 C 34.90625 -0.488281 30.019531 1.65625 24.34375 1.65625 Z M 29.75 -7.796875 C 31.476562 -7.796875 33.101562 -8.242188 34.625 -9.140625 C 36.15625 -10.046875 37.40625 -11.265625 38.375 -12.796875 L 38.375 -43.984375 C 37.613281 -44.546875 36.539062 -45.015625 35.15625 -45.390625 C 33.769531 -45.773438 32.378906 -45.96875 30.984375 -45.96875 C 26.554688 -45.894531 23.382812 -43.984375 21.46875 -40.234375 C 19.5625 -36.492188 18.609375 -31.816406 18.609375 -26.203125 C 18.609375 -21.210938 19.523438 -16.894531 21.359375 -13.25 C 23.203125 -9.613281 26 -7.796875 29.75 -7.796875 Z M 29.75 -7.796875 "/></g></g></g><g fill="#ffffff" fill-opacity="1"><g transform="translate(833.908662, 468.968145)"><g><path d="M 4.265625 -6.765625 C 6.898438 -6.765625 8.582031 -7.488281 9.3125 -8.9375 C 10.039062 -10.394531 10.40625 -12.753906 10.40625 -16.015625 L 10.40625 -33.484375 C 10.40625 -36.609375 10.539062 -39.554688 10.8125 -42.328125 L 3.53125 -42.015625 L 3.53125 -49.921875 C 7.90625 -49.921875 11.441406 -50.234375 14.140625 -50.859375 C 16.847656 -51.484375 18.648438 -52.210938 19.546875 -53.046875 L 24.640625 -53.046875 C 24.785156 -52.003906 24.890625 -50.648438 24.953125 -48.984375 C 25.023438 -47.316406 25.0625 -45.6875 25.0625 -44.09375 L 25.265625 -44.09375 C 29.984375 -50.46875 34.976562 -53.65625 40.25 -53.65625 C 42.882812 -53.65625 45.050781 -52.925781 46.75 -51.46875 C 48.445312 -50.019531 49.296875 -47.875 49.296875 -45.03125 C 49.296875 -43.226562 48.707031 -41.5625 47.53125 -40.03125 C 46.351562 -38.507812 44.582031 -37.75 42.21875 -37.75 C 40.488281 -37.75 38.945312 -38.195312 37.59375 -39.09375 C 36.238281 -40 35.457031 -41.5625 35.25 -43.78125 C 33.3125 -43.78125 31.316406 -42.65625 29.265625 -40.40625 C 27.222656 -38.15625 25.859375 -35.921875 25.171875 -33.703125 L 25.171875 -16.75 C 25.171875 -13.414062 25.03125 -10.363281 24.75 -7.59375 C 26.96875 -7.800781 29.222656 -7.90625 31.515625 -7.90625 L 31.515625 0 L 4.265625 0 Z M 4.265625 -6.765625 "/></g></g></g><g fill="#ffffff" fill-opacity="1"><g transform="translate(879.667937, 468.968145)"><g><path d="M 29.75 1.65625 C 24.6875 1.65625 20.144531 0.582031 16.125 -1.5625 C 12.101562 -3.707031 8.945312 -6.789062 6.65625 -10.8125 C 4.363281 -14.832031 3.21875 -19.515625 3.21875 -24.859375 C 3.21875 -30.472656 4.394531 -35.460938 6.75 -39.828125 C 9.113281 -44.203125 12.285156 -47.597656 16.265625 -50.015625 C 20.253906 -52.441406 24.644531 -53.65625 29.4375 -53.65625 C 34.425781 -53.65625 38.894531 -52.582031 42.84375 -50.4375 C 46.800781 -48.289062 49.921875 -45.1875 52.203125 -41.125 C 54.492188 -37.070312 55.640625 -32.34375 55.640625 -26.9375 C 55.640625 -21.175781 54.546875 -16.144531 52.359375 -11.84375 C 50.179688 -7.550781 47.132812 -4.226562 43.21875 -1.875 C 39.300781 0.476562 34.8125 1.65625 29.75 1.65625 Z M 29.953125 -5.71875 C 33.765625 -5.71875 36.429688 -7.484375 37.953125 -11.015625 C 39.484375 -14.554688 40.25 -19 40.25 -24.34375 C 40.25 -30.300781 39.378906 -35.460938 37.640625 -39.828125 C 35.910156 -44.203125 33.175781 -46.390625 29.4375 -46.390625 C 25.625 -46.390625 22.847656 -44.582031 21.109375 -40.96875 C 19.378906 -37.363281 18.515625 -32.925781 18.515625 -27.65625 C 18.515625 -21.625 19.445312 -16.457031 21.3125 -12.15625 C 23.1875 -7.863281 26.066406 -5.71875 29.953125 -5.71875 Z M 29.953125 -5.71875 "/></g></g></g><g fill="#ffffff" fill-opacity="1"><g transform="translate(934.371146, 468.968145)"><g><path d="M 3.21875 19.765625 C 5.851562 19.765625 7.550781 19.035156 8.3125 17.578125 C 9.082031 16.117188 9.46875 13.757812 9.46875 10.5 L 9.46875 -33.484375 C 9.46875 -36.609375 9.601562 -39.554688 9.875 -42.328125 L 2.5 -42.015625 L 2.5 -49.921875 C 6.863281 -49.921875 10.394531 -50.234375 13.09375 -50.859375 C 15.800781 -51.484375 17.609375 -52.210938 18.515625 -53.046875 L 23.609375 -53.046875 C 23.742188 -51.859375 23.914062 -50.191406 24.125 -48.046875 L 24.234375 -48.046875 C 28.535156 -51.785156 33.179688 -53.65625 38.171875 -53.65625 C 42.328125 -53.65625 45.984375 -52.582031 49.140625 -50.4375 C 52.296875 -48.289062 54.753906 -45.222656 56.515625 -41.234375 C 58.285156 -37.242188 59.171875 -32.617188 59.171875 -27.359375 C 59.171875 -21.804688 58.097656 -16.828125 55.953125 -12.421875 C 53.804688 -8.023438 50.769531 -4.578125 46.84375 -2.078125 C 42.925781 0.410156 38.441406 1.65625 33.390625 1.65625 C 30.679688 1.65625 27.59375 1.035156 24.125 -0.203125 L 24.125 9.78125 C 24.125 12.757812 24.019531 15.804688 23.8125 18.921875 C 25.96875 18.710938 28.1875 18.609375 30.46875 18.609375 L 30.46875 26.515625 L 3.21875 26.515625 Z M 31.296875 -6.140625 C 39.691406 -6.140625 43.890625 -12.691406 43.890625 -25.796875 C 43.890625 -30.921875 42.96875 -35.285156 41.125 -38.890625 C 39.289062 -42.492188 36.535156 -44.296875 32.859375 -44.296875 C 31.128906 -44.296875 29.484375 -43.878906 27.921875 -43.046875 C 26.359375 -42.222656 25.09375 -41.117188 24.125 -39.734375 L 24.125 -8.015625 C 24.820312 -7.523438 25.84375 -7.085938 27.1875 -6.703125 C 28.539062 -6.328125 29.910156 -6.140625 31.296875 -6.140625 Z M 31.296875 -6.140625 "/></g></g></g></svg>