<svg xmlns="http://www.w3.org/2000/svg" xmlns:xlink="http://www.w3.org/1999/xlink" width="1600" zoomAndPan="magnify" viewBox="0 0 1200 675.000002" height="900" preserveAspectRatio="xMidYMid meet" version="1.0"><defs><g/><clipPath id="2f2bdb2c06"><path d="M 0.886719 0 L 1199.113281 0 L 1199.113281 674 L 0.886719 674 Z M 0.886719 0 " clip-rule="nonzero"/></clipPath></defs><g clip-path="url(#2f2bdb2c06)"><path fill="#ffffff" d="M 0.886719 0 L 1199.113281 0 L 1199.113281 674 L 0.886719 674 Z M 0.886719 0 " fill-opacity="1" fill-rule="nonzero"/><path fill="#eb7106" d="M 0.886719 0 L 1199.113281 0 L 1199.113281 674 L 0.886719 674 Z M 0.886719 0 " fill-opacity="1" fill-rule="nonzero"/></g><path fill="#ffffff" d="M 636.160156 228.933594 C 536.679688 188.140625 473.058594 333.359375 568.21875 393.34375 C 507.246094 367.339844 488.59375 276.007812 549.457031 232.324219 C 471.105469 234.324219 446.101562 330.859375 470.355469 392.128906 C 405.746094 269.992188 532.507812 151.898438 663.003906 235.175781 C 638.222656 200.570312 597.679688 178.015625 551.867188 178.015625 C 494.863281 178.015625 446.015625 212.933594 425.546875 262.546875 C 426.132812 255.710938 427.117188 248.867188 428.53125 242.03125 C 430.175781 234.082031 432.394531 226.15625 435.207031 218.300781 C 467.78125 127.273438 567.984375 79.890625 659.015625 112.46875 C 750.039062 145.046875 797.425781 245.246094 764.84375 336.277344 C 760.460938 348.539062 754.839844 360.011719 748.1875 370.597656 C 644.761719 405.164062 582.289062 356.261719 582.289062 356.261719 C 623.753906 416.019531 717.046875 391.804688 737.300781 385.996094 C 682.425781 412.539062 588.609375 405.730469 563.652344 340.855469 C 542.480469 285.8125 579.34375 213.921875 636.167969 228.925781 Z M 775.253906 340.003906 C 809.890625 243.222656 759.511719 136.691406 662.730469 102.054688 C 565.949219 67.421875 459.417969 117.796875 424.78125 214.578125 C 390.144531 311.363281 440.523438 417.894531 537.304688 452.527344 C 634.085938 487.164062 740.617188 436.789062 775.253906 340.003906 Z M 775.253906 340.003906 " fill-opacity="1" fill-rule="evenodd"/><g fill="#ffffff" fill-opacity="1"><g transform="translate(301.32601, 568.128775)"><g><path d="M 17.265625 1.65625 C 12.898438 1.65625 9.453125 0.359375 6.921875 -2.234375 C 4.390625 -4.835938 3.125 -8.148438 3.125 -12.171875 C 3.125 -18.265625 5.960938 -22.890625 11.640625 -26.046875 C 17.328125 -29.203125 24.160156 -30.953125 32.140625 -31.296875 L 32.140625 -36.71875 C 32.140625 -43.019531 29.78125 -46.171875 25.0625 -46.171875 C 22.007812 -46.171875 19.515625 -45.203125 17.578125 -43.265625 C 18.410156 -42.296875 18.828125 -40.976562 18.828125 -39.3125 C 18.828125 -37.644531 18.253906 -36.148438 17.109375 -34.828125 C 15.960938 -33.515625 14.28125 -32.859375 12.0625 -32.859375 C 9.976562 -32.859375 8.347656 -33.535156 7.171875 -34.890625 C 5.992188 -36.242188 5.40625 -37.925781 5.40625 -39.9375 C 5.40625 -42.632812 6.375 -45.023438 8.3125 -47.109375 C 10.257812 -49.191406 12.910156 -50.800781 16.265625 -51.9375 C 19.628906 -53.082031 23.328125 -53.65625 27.359375 -53.65625 C 40.179688 -53.65625 46.59375 -47.035156 46.59375 -33.796875 L 46.484375 -16.75 C 46.484375 -13.414062 46.347656 -10.363281 46.078125 -7.59375 C 48.359375 -7.800781 50.609375 -7.90625 52.828125 -7.90625 L 52.828125 0 L 33.171875 0 C 33.035156 -0.90625 32.898438 -2.5 32.765625 -4.78125 L 32.65625 -4.78125 C 28.425781 -0.488281 23.296875 1.65625 17.265625 1.65625 Z M 23.8125 -8.53125 C 26.9375 -8.53125 29.675781 -9.773438 32.03125 -12.265625 L 32.03125 -23.921875 C 27.9375 -23.503906 24.554688 -22.460938 21.890625 -20.796875 C 19.222656 -19.128906 17.890625 -16.878906 17.890625 -14.046875 C 17.890625 -12.171875 18.457031 -10.78125 19.59375 -9.875 C 20.738281 -8.976562 22.144531 -8.53125 23.8125 -8.53125 Z M 23.8125 -8.53125 "/></g></g></g><g fill="#ffffff" fill-opacity="1"><g transform="translate(351.661224, 568.128775)"><g><path d="M 2.59375 -6.765625 C 4.46875 -6.765625 5.835938 -7.125 6.703125 -7.84375 C 7.578125 -8.570312 8.132812 -9.5625 8.375 -10.8125 C 8.613281 -12.0625 8.734375 -13.796875 8.734375 -16.015625 L 8.734375 -58.765625 C 8.734375 -62.085938 8.875 -65.101562 9.15625 -67.8125 L 1.875 -67.5 L 1.875 -75.40625 C 6.238281 -75.40625 9.769531 -75.710938 12.46875 -76.328125 C 15.175781 -76.953125 16.984375 -77.679688 17.890625 -78.515625 L 23.5 -78.515625 L 23.5 -16.75 C 23.5 -13.414062 23.363281 -10.363281 23.09375 -7.59375 C 25.375 -7.800781 27.625 -7.90625 29.84375 -7.90625 L 29.84375 0 L 2.59375 0 Z M 2.59375 -6.765625 "/></g></g></g><g fill="#ffffff" fill-opacity="1"><g transform="translate(379.948609, 568.128775)"><g><path d="M 7.484375 -35.78125 C 6.722656 -37.925781 6.164062 -39.570312 5.8125 -40.71875 C 5.46875 -41.863281 5.160156 -43.054688 4.890625 -44.296875 L 0.828125 -44.09375 L 0.828125 -52 L 25.796875 -52 L 25.796875 -45.34375 C 23.085938 -45.269531 21.734375 -43.8125 21.734375 -40.96875 C 21.734375 -40.28125 21.941406 -39.035156 22.359375 -37.234375 L 25.890625 -24.546875 C 26.867188 -21.003906 27.597656 -17.707031 28.078125 -14.65625 L 28.1875 -14.65625 C 28.320312 -15.21875 28.597656 -16.535156 29.015625 -18.609375 C 29.429688 -20.691406 30.054688 -23.117188 30.890625 -25.890625 L 38.484375 -52 L 49.8125 -52 L 58.140625 -23.296875 C 58.617188 -21.566406 59.445312 -18.445312 60.625 -13.9375 L 60.734375 -13.9375 C 61.015625 -15.945312 61.8125 -18.960938 63.125 -22.984375 L 67.1875 -36.1875 C 67.664062 -37.851562 68.148438 -39.363281 68.640625 -40.71875 C 69.128906 -42.070312 69.648438 -43.300781 70.203125 -44.40625 L 70.203125 -44.515625 L 64.265625 -44.09375 L 64.265625 -52 L 84.03125 -52 L 84.03125 -45.34375 C 80.351562 -45.34375 77.234375 -41.597656 74.671875 -34.109375 L 62.8125 0.3125 L 51.796875 0.3125 L 44.609375 -21.84375 C 43.503906 -25.3125 42.289062 -29.570312 40.96875 -34.625 L 40.875 -34.625 C 40.113281 -30.46875 38.519531 -24.539062 36.09375 -16.84375 L 30.375 0.3125 L 20.078125 0.3125 Z M 7.484375 -35.78125 "/></g></g></g><g fill="#ffffff" fill-opacity="1"><g transform="translate(460.131595, 568.128775)"><g><path d="M 17.265625 1.65625 C 12.898438 1.65625 9.453125 0.359375 6.921875 -2.234375 C 4.390625 -4.835938 3.125 -8.148438 3.125 -12.171875 C 3.125 -18.265625 5.960938 -22.890625 11.640625 -26.046875 C 17.328125 -29.203125 24.160156 -30.953125 32.140625 -31.296875 L 32.140625 -36.71875 C 32.140625 -43.019531 29.78125 -46.171875 25.0625 -46.171875 C 22.007812 -46.171875 19.515625 -45.203125 17.578125 -43.265625 C 18.410156 -42.296875 18.828125 -40.976562 18.828125 -39.3125 C 18.828125 -37.644531 18.253906 -36.148438 17.109375 -34.828125 C 15.960938 -33.515625 14.28125 -32.859375 12.0625 -32.859375 C 9.976562 -32.859375 8.347656 -33.535156 7.171875 -34.890625 C 5.992188 -36.242188 5.40625 -37.925781 5.40625 -39.9375 C 5.40625 -42.632812 6.375 -45.023438 8.3125 -47.109375 C 10.257812 -49.191406 12.910156 -50.800781 16.265625 -51.9375 C 19.628906 -53.082031 23.328125 -53.65625 27.359375 -53.65625 C 40.179688 -53.65625 46.59375 -47.035156 46.59375 -33.796875 L 46.484375 -16.75 C 46.484375 -13.414062 46.347656 -10.363281 46.078125 -7.59375 C 48.359375 -7.800781 50.609375 -7.90625 52.828125 -7.90625 L 52.828125 0 L 33.171875 0 C 33.035156 -0.90625 32.898438 -2.5 32.765625 -4.78125 L 32.65625 -4.78125 C 28.425781 -0.488281 23.296875 1.65625 17.265625 1.65625 Z M 23.8125 -8.53125 C 26.9375 -8.53125 29.675781 -9.773438 32.03125 -12.265625 L 32.03125 -23.921875 C 27.9375 -23.503906 24.554688 -22.460938 21.890625 -20.796875 C 19.222656 -19.128906 17.890625 -16.878906 17.890625 -14.046875 C 17.890625 -12.171875 18.457031 -10.78125 19.59375 -9.875 C 20.738281 -8.976562 22.144531 -8.53125 23.8125 -8.53125 Z M 23.8125 -8.53125 "/></g></g></g><g fill="#ffffff" fill-opacity="1"><g transform="translate(510.466809, 568.128775)"><g><path d="M 15.390625 28.1875 C 12.691406 28.1875 10.4375 27.390625 8.625 25.796875 C 6.820312 24.203125 5.921875 22.15625 5.921875 19.65625 C 5.921875 17.71875 6.5625 16.035156 7.84375 14.609375 C 9.132812 13.191406 10.75 12.484375 12.6875 12.484375 C 14.207031 12.484375 15.46875 13.019531 16.46875 14.09375 C 17.476562 15.164062 17.984375 16.566406 17.984375 18.296875 C 17.984375 18.859375 17.953125 19.3125 17.890625 19.65625 L 17.890625 19.765625 C 19.203125 19.765625 20.671875 18.097656 22.296875 14.765625 C 23.929688 11.441406 25.410156 7.421875 26.734375 2.703125 L 10.296875 -30.265625 C 8.492188 -33.734375 7.28125 -36.453125 6.65625 -38.421875 C 6.03125 -40.398438 5.578125 -42.359375 5.296875 -44.296875 L 0.515625 -44.09375 L 0.515625 -52 L 26.421875 -52 L 26.421875 -45.34375 C 23.503906 -45 22.046875 -43.644531 22.046875 -41.28125 C 22.046875 -40.101562 22.394531 -38.753906 23.09375 -37.234375 L 33.28125 -13.9375 L 33.390625 -13.9375 L 35.5625 -20.90625 C 36.332031 -23.539062 37.789062 -28.113281 39.9375 -34.625 C 41.457031 -39.476562 42.910156 -42.738281 44.296875 -44.40625 L 44.296875 -44.515625 L 38.375 -44.09375 L 38.375 -52 L 56.890625 -52 L 56.890625 -45.34375 C 54.878906 -44.851562 53.144531 -43.601562 51.6875 -41.59375 C 50.226562 -39.582031 48.910156 -36.878906 47.734375 -33.484375 L 34.734375 3.640625 C 32.648438 9.804688 30.742188 14.585938 29.015625 17.984375 C 27.285156 21.390625 25.363281 23.941406 23.25 25.640625 C 21.132812 27.335938 18.515625 28.1875 15.390625 28.1875 Z M 15.390625 28.1875 "/></g></g></g><g fill="#ffffff" fill-opacity="1"><g transform="translate(563.609988, 568.128775)"><g><path d="M 28.1875 1.65625 C 25.207031 1.65625 22.296875 1.273438 19.453125 0.515625 C 16.609375 -0.242188 14.390625 -1.210938 12.796875 -2.390625 L 12.6875 -2.390625 L 13 0.734375 L 5.09375 0.734375 L 4.6875 -17.15625 L 11.4375 -17.15625 C 11.78125 -13.96875 13.460938 -11.28125 16.484375 -9.09375 C 19.503906 -6.914062 23.195312 -5.828125 27.5625 -5.828125 C 29.5 -5.828125 31.175781 -6.273438 32.59375 -7.171875 C 34.019531 -8.078125 34.734375 -9.363281 34.734375 -11.03125 C 34.734375 -12.269531 34.28125 -13.304688 33.375 -14.140625 C 32.476562 -14.972656 31.40625 -15.664062 30.15625 -16.21875 C 28.90625 -16.78125 26.410156 -17.785156 22.671875 -19.234375 C 18.234375 -20.972656 14.90625 -22.394531 12.6875 -23.5 C 10.46875 -24.613281 8.472656 -26.257812 6.703125 -28.4375 C 4.941406 -30.625 4.0625 -33.453125 4.0625 -36.921875 C 4.0625 -39.765625 4.769531 -42.453125 6.1875 -44.984375 C 7.601562 -47.515625 9.785156 -49.59375 12.734375 -51.21875 C 15.679688 -52.84375 19.304688 -53.65625 23.609375 -53.65625 C 25.617188 -53.65625 27.800781 -53.34375 30.15625 -52.71875 C 32.519531 -52.101562 34.5 -51.238281 36.09375 -50.125 L 36.1875 -50.125 L 36.09375 -53.140625 L 43.984375 -53.140625 L 43.984375 -34.734375 L 37.234375 -34.734375 C 36.609375 -38.335938 35.007812 -41.179688 32.4375 -43.265625 C 29.875 -45.347656 26.722656 -46.390625 22.984375 -46.390625 C 21.046875 -46.390625 19.414062 -45.9375 18.09375 -45.03125 C 16.78125 -44.132812 16.125 -42.75 16.125 -40.875 C 16.125 -38.925781 16.882812 -37.484375 18.40625 -36.546875 C 19.9375 -35.617188 22.503906 -34.566406 26.109375 -33.390625 C 26.523438 -33.316406 27.425781 -33.035156 28.8125 -32.546875 C 34.695312 -30.472656 39.21875 -28.046875 42.375 -25.265625 C 45.53125 -22.492188 47.109375 -18.859375 47.109375 -14.359375 C 47.109375 -10.890625 46.222656 -7.957031 44.453125 -5.5625 C 42.691406 -3.164062 40.367188 -1.363281 37.484375 -0.15625 C 34.609375 1.050781 31.507812 1.65625 28.1875 1.65625 Z M 28.1875 1.65625 "/></g></g></g><g fill="#ffffff" fill-opacity="1"><g transform="translate(609.889244, 568.128775)"><g/></g></g><g fill="#ffffff" fill-opacity="1"><g transform="translate(633.080649, 568.128775)"><g><path d="M 2.59375 -6.765625 C 4.46875 -6.765625 5.835938 -7.125 6.703125 -7.84375 C 7.578125 -8.570312 8.132812 -9.5625 8.375 -10.8125 C 8.613281 -12.0625 8.734375 -13.796875 8.734375 -16.015625 L 8.734375 -58.765625 C 8.734375 -62.085938 8.875 -65.101562 9.15625 -67.8125 L 1.875 -67.5 L 1.875 -75.40625 C 6.238281 -75.40625 9.769531 -75.710938 12.46875 -76.328125 C 15.175781 -76.953125 16.984375 -77.679688 17.890625 -78.515625 L 23.5 -78.515625 L 23.5 -16.75 C 23.5 -13.414062 23.363281 -10.363281 23.09375 -7.59375 C 25.375 -7.800781 27.625 -7.90625 29.84375 -7.90625 L 29.84375 0 L 2.59375 0 Z M 2.59375 -6.765625 "/></g></g></g><g fill="#ffffff" fill-opacity="1"><g transform="translate(661.368034, 568.128775)"><g><path d="M 18.921875 -62.296875 C 16.566406 -62.296875 14.625 -63.109375 13.09375 -64.734375 C 11.570312 -66.367188 10.8125 -68.363281 10.8125 -70.71875 C 10.8125 -73.070312 11.609375 -75.097656 13.203125 -76.796875 C 14.796875 -78.503906 16.671875 -79.359375 18.828125 -79.359375 C 21.046875 -79.359375 22.898438 -78.523438 24.390625 -76.859375 C 25.878906 -75.191406 26.625 -73.144531 26.625 -70.71875 C 26.625 -68.289062 25.910156 -66.28125 24.484375 -64.6875 C 23.066406 -63.09375 21.210938 -62.296875 18.921875 -62.296875 Z M 4.265625 -6.765625 C 6.898438 -6.765625 8.582031 -7.488281 9.3125 -8.9375 C 10.039062 -10.394531 10.40625 -12.753906 10.40625 -16.015625 L 10.40625 -33.28125 C 10.40625 -36.539062 10.539062 -39.554688 10.8125 -42.328125 L 3.53125 -42.015625 L 3.53125 -49.921875 C 7.90625 -49.921875 11.441406 -50.234375 14.140625 -50.859375 C 16.847656 -51.484375 18.648438 -52.210938 19.546875 -53.046875 L 25.171875 -53.046875 L 25.171875 -16.75 C 25.171875 -13.414062 25.03125 -10.363281 24.75 -7.59375 C 26.96875 -7.800781 29.222656 -7.90625 31.515625 -7.90625 L 31.515625 0 L 4.265625 0 Z M 4.265625 -6.765625 "/></g></g></g><g fill="#ffffff" fill-opacity="1"><g transform="translate(691.215389, 568.128775)"><g><path d="M 32.234375 19.765625 C 34.867188 19.765625 36.550781 19.035156 37.28125 17.578125 C 38.007812 16.117188 38.375 13.757812 38.375 10.5 L 38.484375 -4.15625 L 38.375 -4.15625 C 34.425781 -0.28125 29.75 1.65625 24.34375 1.65625 C 20.175781 1.65625 16.515625 0.582031 13.359375 -1.5625 C 10.203125 -3.707031 7.738281 -6.773438 5.96875 -10.765625 C 4.207031 -14.753906 3.328125 -19.378906 3.328125 -24.640625 C 3.328125 -30.191406 4.398438 -35.164062 6.546875 -39.5625 C 8.703125 -43.96875 11.753906 -47.414062 15.703125 -49.90625 C 19.648438 -52.40625 24.191406 -53.65625 29.328125 -53.65625 C 31.410156 -53.65625 33.25 -53.515625 34.84375 -53.234375 C 36.4375 -52.960938 38.203125 -52.585938 40.140625 -52.109375 C 41.941406 -51.617188 43.191406 -51.375 43.890625 -51.375 C 44.441406 -51.375 45.082031 -51.53125 45.8125 -51.84375 C 46.539062 -52.15625 47.113281 -52.554688 47.53125 -53.046875 L 53.140625 -53.046875 L 53.140625 9.78125 C 53.140625 13.101562 53.003906 16.148438 52.734375 18.921875 C 54.953125 18.710938 57.203125 18.609375 59.484375 18.609375 L 59.484375 26.515625 L 32.234375 26.515625 Z M 29.75 -7.703125 C 31.476562 -7.703125 33.125 -8.148438 34.6875 -9.046875 C 36.25 -9.953125 37.476562 -11.128906 38.375 -12.578125 L 38.375 -36.921875 C 38.375 -40.390625 37.59375 -42.78125 36.03125 -44.09375 C 34.476562 -45.414062 32.59375 -46.078125 30.375 -46.078125 C 26.28125 -46.003906 23.296875 -44.179688 21.421875 -40.609375 C 19.546875 -37.035156 18.609375 -32.582031 18.609375 -27.25 C 18.609375 -21.976562 19.507812 -17.398438 21.3125 -13.515625 C 23.125 -9.640625 25.9375 -7.703125 29.75 -7.703125 Z M 29.75 -7.703125 "/></g></g></g><g fill="#ffffff" fill-opacity="1"><g transform="translate(746.646553, 568.128775)"><g><path d="M 25.796875 1.65625 C 19.617188 1.65625 15.195312 -0.144531 12.53125 -3.75 C 9.863281 -7.351562 8.53125 -13.207031 8.53125 -21.3125 L 8.53125 -33.28125 C 8.53125 -36.1875 8.632812 -39.203125 8.84375 -42.328125 L 1.5625 -42.015625 L 1.5625 -49.921875 C 5.925781 -49.921875 9.457031 -50.234375 12.15625 -50.859375 C 14.863281 -51.484375 16.671875 -52.210938 17.578125 -53.046875 L 23.296875 -53.046875 L 23.296875 -21.21875 C 23.296875 -16.644531 23.882812 -13.28125 25.0625 -11.125 C 26.238281 -8.976562 28.113281 -7.90625 30.6875 -7.90625 C 32.414062 -7.90625 34.195312 -8.390625 36.03125 -9.359375 C 37.875 -10.328125 39.414062 -11.503906 40.65625 -12.890625 L 40.65625 -33.28125 C 40.65625 -36.539062 40.796875 -39.554688 41.078125 -42.328125 L 33.796875 -42.015625 L 33.796875 -49.921875 C 38.171875 -49.921875 41.691406 -50.234375 44.359375 -50.859375 C 47.023438 -51.484375 48.8125 -52.210938 49.71875 -53.046875 L 55.4375 -53.046875 L 55.4375 -16.75 C 55.4375 -13.414062 55.296875 -10.363281 55.015625 -7.59375 C 57.234375 -7.800781 59.488281 -7.90625 61.78125 -7.90625 L 61.78125 0 L 42.015625 0 L 41.390625 -5.40625 L 41.28125 -5.40625 C 38.71875 -3.1875 36.238281 -1.453125 33.84375 -0.203125 C 31.457031 1.035156 28.773438 1.65625 25.796875 1.65625 Z M 25.796875 1.65625 "/></g></g></g><g fill="#ffffff" fill-opacity="1"><g transform="translate(806.757659, 568.128775)"><g><path d="M 18.921875 -62.296875 C 16.566406 -62.296875 14.625 -63.109375 13.09375 -64.734375 C 11.570312 -66.367188 10.8125 -68.363281 10.8125 -70.71875 C 10.8125 -73.070312 11.609375 -75.097656 13.203125 -76.796875 C 14.796875 -78.503906 16.671875 -79.359375 18.828125 -79.359375 C 21.046875 -79.359375 22.898438 -78.523438 24.390625 -76.859375 C 25.878906 -75.191406 26.625 -73.144531 26.625 -70.71875 C 26.625 -68.289062 25.910156 -66.28125 24.484375 -64.6875 C 23.066406 -63.09375 21.210938 -62.296875 18.921875 -62.296875 Z M 4.265625 -6.765625 C 6.898438 -6.765625 8.582031 -7.488281 9.3125 -8.9375 C 10.039062 -10.394531 10.40625 -12.753906 10.40625 -16.015625 L 10.40625 -33.28125 C 10.40625 -36.539062 10.539062 -39.554688 10.8125 -42.328125 L 3.53125 -42.015625 L 3.53125 -49.921875 C 7.90625 -49.921875 11.441406 -50.234375 14.140625 -50.859375 C 16.847656 -51.484375 18.648438 -52.210938 19.546875 -53.046875 L 25.171875 -53.046875 L 25.171875 -16.75 C 25.171875 -13.414062 25.03125 -10.363281 24.75 -7.59375 C 26.96875 -7.800781 29.222656 -7.90625 31.515625 -7.90625 L 31.515625 0 L 4.265625 0 Z M 4.265625 -6.765625 "/></g></g></g><g fill="#ffffff" fill-opacity="1"><g transform="translate(836.605015, 568.128775)"><g><path d="M 24.34375 1.65625 C 20.175781 1.65625 16.515625 0.582031 13.359375 -1.5625 C 10.203125 -3.707031 7.738281 -6.773438 5.96875 -10.765625 C 4.207031 -14.753906 3.328125 -19.378906 3.328125 -24.640625 C 3.328125 -30.191406 4.398438 -35.164062 6.546875 -39.5625 C 8.703125 -43.96875 11.738281 -47.414062 15.65625 -49.90625 C 19.570312 -52.40625 24.0625 -53.65625 29.125 -53.65625 C 31.820312 -53.65625 34.90625 -53.035156 38.375 -51.796875 L 38.375 -58.65625 C 38.375 -61.976562 38.515625 -65.03125 38.796875 -67.8125 C 36.503906 -67.601562 34.039062 -67.5 31.40625 -67.5 L 31.40625 -75.40625 C 35.769531 -75.40625 39.304688 -75.710938 42.015625 -76.328125 C 44.722656 -76.953125 46.523438 -77.679688 47.421875 -78.515625 L 53.046875 -78.515625 L 53.046875 -16.75 C 53.046875 -13.414062 52.90625 -10.363281 52.625 -7.59375 C 54.914062 -7.800781 57.171875 -7.90625 59.390625 -7.90625 L 59.390625 0 L 39.625 0 L 39.109375 -4.78125 L 39 -4.78125 C 34.90625 -0.488281 30.019531 1.65625 24.34375 1.65625 Z M 29.75 -7.796875 C 31.476562 -7.796875 33.101562 -8.242188 34.625 -9.140625 C 36.15625 -10.046875 37.40625 -11.265625 38.375 -12.796875 L 38.375 -43.984375 C 37.613281 -44.546875 36.539062 -45.015625 35.15625 -45.390625 C 33.769531 -45.773438 32.378906 -45.96875 30.984375 -45.96875 C 26.554688 -45.894531 23.382812 -43.984375 21.46875 -40.234375 C 19.5625 -36.492188 18.609375 -31.816406 18.609375 -26.203125 C 18.609375 -21.210938 19.523438 -16.894531 21.359375 -13.25 C 23.203125 -9.613281 26 -7.796875 29.75 -7.796875 Z M 29.75 -7.796875 "/></g></g></g></svg>