<svg xmlns="http://www.w3.org/2000/svg" xmlns:xlink="http://www.w3.org/1999/xlink" width="1600" zoomAndPan="magnify" viewBox="0 0 1200 675.000002" height="900" preserveAspectRatio="xMidYMid meet" version="1.0"><defs><g/><clipPath id="2e312b37a3"><path d="M 0.886719 0 L 1199.113281 0 L 1199.113281 674 L 0.886719 674 Z M 0.886719 0 " clip-rule="nonzero"/></clipPath></defs><g clip-path="url(#2e312b37a3)"><path fill="#ffffff" d="M 0.886719 0 L 1199.113281 0 L 1199.113281 674 L 0.886719 674 Z M 0.886719 0 " fill-opacity="1" fill-rule="nonzero"/><path fill="#eb7106" d="M 0.886719 0 L 1199.113281 0 L 1199.113281 674 L 0.886719 674 Z M 0.886719 0 " fill-opacity="1" fill-rule="nonzero"/></g><path fill="#ffffff" d="M 620.625 189.742188 C 563.886719 166.480469 527.605469 249.296875 581.875 283.507812 C 547.101562 268.675781 536.464844 216.589844 571.175781 191.675781 C 526.488281 192.816406 512.230469 247.871094 526.0625 282.816406 C 489.214844 213.160156 561.507812 145.808594 635.929688 193.304688 C 621.796875 173.566406 598.675781 160.703125 572.550781 160.703125 C 540.039062 160.703125 512.183594 180.617188 500.507812 208.910156 C 500.839844 205.015625 501.402344 201.113281 502.210938 197.210938 C 503.148438 192.679688 504.414062 188.160156 506.015625 183.679688 C 524.59375 131.765625 581.738281 104.742188 633.65625 123.324219 C 685.570312 141.902344 712.59375 199.046875 694.011719 250.964844 C 691.511719 257.957031 688.304688 264.5 684.511719 270.535156 C 625.527344 290.25 589.898438 262.359375 589.898438 262.359375 C 613.546875 296.441406 666.753906 282.628906 678.304688 279.316406 C 647.007812 294.457031 593.503906 290.574219 579.269531 253.574219 C 567.195312 222.179688 588.21875 181.179688 620.625 189.738281 Z M 699.949219 253.089844 C 719.703125 197.890625 690.972656 137.136719 635.777344 117.382812 C 580.578125 97.628906 519.824219 126.359375 500.070312 181.558594 C 480.316406 236.753906 509.046875 297.507812 564.246094 317.261719 C 619.441406 337.015625 680.195312 308.285156 699.949219 253.089844 Z M 699.949219 253.089844 " fill-opacity="1" fill-rule="evenodd"/><g fill="#ffffff" fill-opacity="1"><g transform="translate(146.225807, 468.96791)"><g><path d="M 28.8125 1.65625 C 24.09375 1.65625 19.789062 0.597656 15.90625 -1.515625 C 12.03125 -3.628906 8.945312 -6.675781 6.65625 -10.65625 C 4.363281 -14.644531 3.21875 -19.378906 3.21875 -24.859375 C 3.21875 -30.054688 4.363281 -34.851562 6.65625 -39.25 C 8.945312 -43.65625 12.15625 -47.15625 16.28125 -49.75 C 20.40625 -52.351562 25.066406 -53.65625 30.265625 -53.65625 C 34.492188 -53.65625 38.113281 -53 41.125 -51.6875 C 44.144531 -50.375 46.414062 -48.625 47.9375 -46.4375 C 49.46875 -44.25 50.234375 -41.910156 50.234375 -39.421875 C 50.234375 -37.265625 49.59375 -35.421875 48.3125 -33.890625 C 47.03125 -32.367188 45.28125 -31.609375 43.0625 -31.609375 C 40.769531 -31.609375 39.050781 -32.300781 37.90625 -33.6875 C 36.757812 -35.082031 36.1875 -36.644531 36.1875 -38.375 C 36.1875 -39.96875 36.601562 -41.492188 37.4375 -42.953125 C 36.8125 -44.203125 35.804688 -45.085938 34.421875 -45.609375 C 33.035156 -46.128906 31.648438 -46.390625 30.265625 -46.390625 C 26.722656 -46.390625 23.859375 -44.773438 21.671875 -41.546875 C 19.492188 -38.328125 18.40625 -33.769531 18.40625 -27.875 C 18.40625 -21.976562 19.546875 -17.125 21.828125 -13.3125 C 24.117188 -9.5 27.726562 -7.59375 32.65625 -7.59375 C 35.425781 -7.59375 38.160156 -8.316406 40.859375 -9.765625 C 43.566406 -11.222656 45.859375 -13.164062 47.734375 -15.59375 L 52.515625 -10.921875 C 49.046875 -6.140625 45.335938 -2.847656 41.390625 -1.046875 C 37.441406 0.753906 33.25 1.65625 28.8125 1.65625 Z M 28.8125 1.65625 "/></g></g></g><g fill="#ffffff" fill-opacity="1"><g transform="translate(195.937008, 468.96791)"><g><path d="M 4.265625 -6.765625 C 6.898438 -6.765625 8.582031 -7.488281 9.3125 -8.9375 C 10.039062 -10.394531 10.40625 -12.753906 10.40625 -16.015625 L 10.40625 -33.484375 C 10.40625 -36.609375 10.539062 -39.554688 10.8125 -42.328125 L 3.53125 -42.015625 L 3.53125 -49.921875 C 7.90625 -49.921875 11.441406 -50.234375 14.140625 -50.859375 C 16.847656 -51.484375 18.648438 -52.210938 19.546875 -53.046875 L 24.640625 -53.046875 C 24.785156 -52.003906 24.890625 -50.648438 24.953125 -48.984375 C 25.023438 -47.316406 25.0625 -45.6875 25.0625 -44.09375 L 25.265625 -44.09375 C 29.984375 -50.46875 34.976562 -53.65625 40.25 -53.65625 C 42.882812 -53.65625 45.050781 -52.925781 46.75 -51.46875 C 48.445312 -50.019531 49.296875 -47.875 49.296875 -45.03125 C 49.296875 -43.226562 48.707031 -41.5625 47.53125 -40.03125 C 46.351562 -38.507812 44.582031 -37.75 42.21875 -37.75 C 40.488281 -37.75 38.945312 -38.195312 37.59375 -39.09375 C 36.238281 -40 35.457031 -41.5625 35.25 -43.78125 C 33.3125 -43.78125 31.316406 -42.65625 29.265625 -40.40625 C 27.222656 -38.15625 25.859375 -35.921875 25.171875 -33.703125 L 25.171875 -16.75 C 25.171875 -13.414062 25.03125 -10.363281 24.75 -7.59375 C 26.96875 -7.800781 29.222656 -7.90625 31.515625 -7.90625 L 31.515625 0 L 4.265625 0 Z M 4.265625 -6.765625 "/></g></g></g><g fill="#ffffff" fill-opacity="1"><g transform="translate(241.696254, 468.96791)"><g><path d="M 28.90625 1.65625 C 23.84375 1.65625 19.367188 0.53125 15.484375 -1.71875 C 11.609375 -3.96875 8.59375 -7.171875 6.4375 -11.328125 C 4.289062 -15.492188 3.21875 -20.347656 3.21875 -25.890625 C 3.21875 -30.742188 4.3125 -35.300781 6.5 -39.5625 C 8.6875 -43.832031 11.753906 -47.25 15.703125 -49.8125 C 19.648438 -52.375 24.15625 -53.65625 29.21875 -53.65625 C 35.945312 -53.65625 41.546875 -51.679688 46.015625 -47.734375 C 50.492188 -43.785156 52.695312 -37.195312 52.625 -27.96875 L 18.515625 -27.359375 C 18.515625 -21.253906 19.675781 -16.429688 22 -12.890625 C 24.320312 -9.359375 28.046875 -7.59375 33.171875 -7.59375 C 35.597656 -7.59375 38.195312 -8.21875 40.96875 -9.46875 C 43.75 -10.71875 46.25 -12.691406 48.46875 -15.390625 L 53.140625 -11.03125 C 47.242188 -2.570312 39.164062 1.65625 28.90625 1.65625 Z M 38.265625 -34.625 C 38.054688 -42.46875 35.21875 -46.390625 29.75 -46.390625 C 26.757812 -46.390625 24.378906 -45.332031 22.609375 -43.21875 C 20.847656 -41.101562 19.691406 -38.238281 19.140625 -34.625 Z M 38.265625 -34.625 "/></g></g></g><g fill="#ffffff" fill-opacity="1"><g transform="translate(293.487466, 468.96791)"><g><path d="M 17.265625 1.65625 C 12.898438 1.65625 9.453125 0.359375 6.921875 -2.234375 C 4.390625 -4.835938 3.125 -8.148438 3.125 -12.171875 C 3.125 -18.265625 5.960938 -22.890625 11.640625 -26.046875 C 17.328125 -29.203125 24.160156 -30.953125 32.140625 -31.296875 L 32.140625 -36.71875 C 32.140625 -43.019531 29.78125 -46.171875 25.0625 -46.171875 C 22.007812 -46.171875 19.515625 -45.203125 17.578125 -43.265625 C 18.410156 -42.296875 18.828125 -40.976562 18.828125 -39.3125 C 18.828125 -37.644531 18.253906 -36.148438 17.109375 -34.828125 C 15.960938 -33.515625 14.28125 -32.859375 12.0625 -32.859375 C 9.976562 -32.859375 8.347656 -33.535156 7.171875 -34.890625 C 5.992188 -36.242188 5.40625 -37.925781 5.40625 -39.9375 C 5.40625 -42.632812 6.375 -45.023438 8.3125 -47.109375 C 10.257812 -49.191406 12.910156 -50.800781 16.265625 -51.9375 C 19.628906 -53.082031 23.328125 -53.65625 27.359375 -53.65625 C 40.179688 -53.65625 46.59375 -47.035156 46.59375 -33.796875 L 46.484375 -16.75 C 46.484375 -13.414062 46.347656 -10.363281 46.078125 -7.59375 C 48.359375 -7.800781 50.609375 -7.90625 52.828125 -7.90625 L 52.828125 0 L 33.171875 0 C 33.035156 -0.90625 32.898438 -2.5 32.765625 -4.78125 L 32.65625 -4.78125 C 28.425781 -0.488281 23.296875 1.65625 17.265625 1.65625 Z M 23.8125 -8.53125 C 26.9375 -8.53125 29.675781 -9.773438 32.03125 -12.265625 L 32.03125 -23.921875 C 27.9375 -23.503906 24.554688 -22.460938 21.890625 -20.796875 C 19.222656 -19.128906 17.890625 -16.878906 17.890625 -14.046875 C 17.890625 -12.171875 18.457031 -10.78125 19.59375 -9.875 C 20.738281 -8.976562 22.144531 -8.53125 23.8125 -8.53125 Z M 23.8125 -8.53125 "/></g></g></g><g fill="#ffffff" fill-opacity="1"><g transform="translate(343.822681, 468.96791)"><g><path d="M 24.859375 1.65625 C 14.035156 1.65625 8.625 -4.992188 8.625 -18.296875 L 8.84375 -43.375 L 1.765625 -43.375 L 1.765625 -52 C 3.984375 -52 6.082031 -52.691406 8.0625 -54.078125 C 10.039062 -55.460938 11.722656 -57.160156 13.109375 -59.171875 C 14.492188 -61.179688 15.460938 -63.125 16.015625 -65 L 23.71875 -65 L 23.609375 -52 L 36.8125 -52 L 36.8125 -43.984375 L 23.609375 -43.6875 L 23.5 -18.09375 C 23.5 -11.375 25.582031 -8.015625 29.75 -8.015625 C 33.070312 -8.015625 36.222656 -10.09375 39.203125 -14.25 L 44.203125 -9.5625 C 40.941406 -4.78125 37.679688 -1.710938 34.421875 -0.359375 C 31.160156 0.984375 27.972656 1.65625 24.859375 1.65625 Z M 24.859375 1.65625 "/></g></g></g><g fill="#ffffff" fill-opacity="1"><g transform="translate(382.613971, 468.96791)"><g><path d="M 28.90625 1.65625 C 23.84375 1.65625 19.367188 0.53125 15.484375 -1.71875 C 11.609375 -3.96875 8.59375 -7.171875 6.4375 -11.328125 C 4.289062 -15.492188 3.21875 -20.347656 3.21875 -25.890625 C 3.21875 -30.742188 4.3125 -35.300781 6.5 -39.5625 C 8.6875 -43.832031 11.753906 -47.25 15.703125 -49.8125 C 19.648438 -52.375 24.15625 -53.65625 29.21875 -53.65625 C 35.945312 -53.65625 41.546875 -51.679688 46.015625 -47.734375 C 50.492188 -43.785156 52.695312 -37.195312 52.625 -27.96875 L 18.515625 -27.359375 C 18.515625 -21.253906 19.675781 -16.429688 22 -12.890625 C 24.320312 -9.359375 28.046875 -7.59375 33.171875 -7.59375 C 35.597656 -7.59375 38.195312 -8.21875 40.96875 -9.46875 C 43.75 -10.71875 46.25 -12.691406 48.46875 -15.390625 L 53.140625 -11.03125 C 47.242188 -2.570312 39.164062 1.65625 28.90625 1.65625 Z M 38.265625 -34.625 C 38.054688 -42.46875 35.21875 -46.390625 29.75 -46.390625 C 26.757812 -46.390625 24.378906 -45.332031 22.609375 -43.21875 C 20.847656 -41.101562 19.691406 -38.238281 19.140625 -34.625 Z M 38.265625 -34.625 "/></g></g></g><g fill="#ffffff" fill-opacity="1"><g transform="translate(434.405182, 468.96791)"><g/></g></g><g fill="#ffffff" fill-opacity="1"><g transform="translate(457.596588, 468.96791)"><g><path d="M 15.390625 28.1875 C 12.691406 28.1875 10.4375 27.390625 8.625 25.796875 C 6.820312 24.203125 5.921875 22.15625 5.921875 19.65625 C 5.921875 17.71875 6.5625 16.035156 7.84375 14.609375 C 9.132812 13.191406 10.75 12.484375 12.6875 12.484375 C 14.207031 12.484375 15.46875 13.019531 16.46875 14.09375 C 17.476562 15.164062 17.984375 16.566406 17.984375 18.296875 C 17.984375 18.859375 17.953125 19.3125 17.890625 19.65625 L 17.890625 19.765625 C 19.203125 19.765625 20.671875 18.097656 22.296875 14.765625 C 23.929688 11.441406 25.410156 7.421875 26.734375 2.703125 L 10.296875 -30.265625 C 8.492188 -33.734375 7.28125 -36.453125 6.65625 -38.421875 C 6.03125 -40.398438 5.578125 -42.359375 5.296875 -44.296875 L 0.515625 -44.09375 L 0.515625 -52 L 26.421875 -52 L 26.421875 -45.34375 C 23.503906 -45 22.046875 -43.644531 22.046875 -41.28125 C 22.046875 -40.101562 22.394531 -38.753906 23.09375 -37.234375 L 33.28125 -13.9375 L 33.390625 -13.9375 L 35.5625 -20.90625 C 36.332031 -23.539062 37.789062 -28.113281 39.9375 -34.625 C 41.457031 -39.476562 42.910156 -42.738281 44.296875 -44.40625 L 44.296875 -44.515625 L 38.375 -44.09375 L 38.375 -52 L 56.890625 -52 L 56.890625 -45.34375 C 54.878906 -44.851562 53.144531 -43.601562 51.6875 -41.59375 C 50.226562 -39.582031 48.910156 -36.878906 47.734375 -33.484375 L 34.734375 3.640625 C 32.648438 9.804688 30.742188 14.585938 29.015625 17.984375 C 27.285156 21.390625 25.363281 23.941406 23.25 25.640625 C 21.132812 27.335938 18.515625 28.1875 15.390625 28.1875 Z M 15.390625 28.1875 "/></g></g></g><g fill="#ffffff" fill-opacity="1"><g transform="translate(510.739767, 468.96791)"><g><path d="M 29.75 1.65625 C 24.6875 1.65625 20.144531 0.582031 16.125 -1.5625 C 12.101562 -3.707031 8.945312 -6.789062 6.65625 -10.8125 C 4.363281 -14.832031 3.21875 -19.515625 3.21875 -24.859375 C 3.21875 -30.472656 4.394531 -35.460938 6.75 -39.828125 C 9.113281 -44.203125 12.285156 -47.597656 16.265625 -50.015625 C 20.253906 -52.441406 24.644531 -53.65625 29.4375 -53.65625 C 34.425781 -53.65625 38.894531 -52.582031 42.84375 -50.4375 C 46.800781 -48.289062 49.921875 -45.1875 52.203125 -41.125 C 54.492188 -37.070312 55.640625 -32.34375 55.640625 -26.9375 C 55.640625 -21.175781 54.546875 -16.144531 52.359375 -11.84375 C 50.179688 -7.550781 47.132812 -4.226562 43.21875 -1.875 C 39.300781 0.476562 34.8125 1.65625 29.75 1.65625 Z M 29.953125 -5.71875 C 33.765625 -5.71875 36.429688 -7.484375 37.953125 -11.015625 C 39.484375 -14.554688 40.25 -19 40.25 -24.34375 C 40.25 -30.300781 39.378906 -35.460938 37.640625 -39.828125 C 35.910156 -44.203125 33.175781 -46.390625 29.4375 -46.390625 C 25.625 -46.390625 22.847656 -44.582031 21.109375 -40.96875 C 19.378906 -37.363281 18.515625 -32.925781 18.515625 -27.65625 C 18.515625 -21.625 19.445312 -16.457031 21.3125 -12.15625 C 23.1875 -7.863281 26.066406 -5.71875 29.953125 -5.71875 Z M 29.953125 -5.71875 "/></g></g></g><g fill="#ffffff" fill-opacity="1"><g transform="translate(565.442947, 468.96791)"><g><path d="M 25.796875 1.65625 C 19.617188 1.65625 15.195312 -0.144531 12.53125 -3.75 C 9.863281 -7.351562 8.53125 -13.207031 8.53125 -21.3125 L 8.53125 -33.28125 C 8.53125 -36.1875 8.632812 -39.203125 8.84375 -42.328125 L 1.5625 -42.015625 L 1.5625 -49.921875 C 5.925781 -49.921875 9.457031 -50.234375 12.15625 -50.859375 C 14.863281 -51.484375 16.671875 -52.210938 17.578125 -53.046875 L 23.296875 -53.046875 L 23.296875 -21.21875 C 23.296875 -16.644531 23.882812 -13.28125 25.0625 -11.125 C 26.238281 -8.976562 28.113281 -7.90625 30.6875 -7.90625 C 32.414062 -7.90625 34.195312 -8.390625 36.03125 -9.359375 C 37.875 -10.328125 39.414062 -11.503906 40.65625 -12.890625 L 40.65625 -33.28125 C 40.65625 -36.539062 40.796875 -39.554688 41.078125 -42.328125 L 33.796875 -42.015625 L 33.796875 -49.921875 C 38.171875 -49.921875 41.691406 -50.234375 44.359375 -50.859375 C 47.023438 -51.484375 48.8125 -52.210938 49.71875 -53.046875 L 55.4375 -53.046875 L 55.4375 -16.75 C 55.4375 -13.414062 55.296875 -10.363281 55.015625 -7.59375 C 57.234375 -7.800781 59.488281 -7.90625 61.78125 -7.90625 L 61.78125 0 L 42.015625 0 L 41.390625 -5.40625 L 41.28125 -5.40625 C 38.71875 -3.1875 36.238281 -1.453125 33.84375 -0.203125 C 31.457031 1.035156 28.773438 1.65625 25.796875 1.65625 Z M 25.796875 1.65625 "/></g></g></g><g fill="#ffffff" fill-opacity="1"><g transform="translate(625.554083, 468.96791)"><g><path d="M 4.265625 -6.765625 C 6.898438 -6.765625 8.582031 -7.488281 9.3125 -8.9375 C 10.039062 -10.394531 10.40625 -12.753906 10.40625 -16.015625 L 10.40625 -33.484375 C 10.40625 -36.609375 10.539062 -39.554688 10.8125 -42.328125 L 3.53125 -42.015625 L 3.53125 -49.921875 C 7.90625 -49.921875 11.441406 -50.234375 14.140625 -50.859375 C 16.847656 -51.484375 18.648438 -52.210938 19.546875 -53.046875 L 24.640625 -53.046875 C 24.785156 -52.003906 24.890625 -50.648438 24.953125 -48.984375 C 25.023438 -47.316406 25.0625 -45.6875 25.0625 -44.09375 L 25.265625 -44.09375 C 29.984375 -50.46875 34.976562 -53.65625 40.25 -53.65625 C 42.882812 -53.65625 45.050781 -52.925781 46.75 -51.46875 C 48.445312 -50.019531 49.296875 -47.875 49.296875 -45.03125 C 49.296875 -43.226562 48.707031 -41.5625 47.53125 -40.03125 C 46.351562 -38.507812 44.582031 -37.75 42.21875 -37.75 C 40.488281 -37.75 38.945312 -38.195312 37.59375 -39.09375 C 36.238281 -40 35.457031 -41.5625 35.25 -43.78125 C 33.3125 -43.78125 31.316406 -42.65625 29.265625 -40.40625 C 27.222656 -38.15625 25.859375 -35.921875 25.171875 -33.703125 L 25.171875 -16.75 C 25.171875 -13.414062 25.03125 -10.363281 24.75 -7.59375 C 26.96875 -7.800781 29.222656 -7.90625 31.515625 -7.90625 L 31.515625 0 L 4.265625 0 Z M 4.265625 -6.765625 "/></g></g></g><g fill="#ffffff" fill-opacity="1"><g transform="translate(671.313329, 468.96791)"><g/></g></g><g fill="#ffffff" fill-opacity="1"><g transform="translate(694.504735, 468.96791)"><g><path d="M 29.75 1.65625 C 24.6875 1.65625 20.144531 0.582031 16.125 -1.5625 C 12.101562 -3.707031 8.945312 -6.789062 6.65625 -10.8125 C 4.363281 -14.832031 3.21875 -19.515625 3.21875 -24.859375 C 3.21875 -30.472656 4.394531 -35.460938 6.75 -39.828125 C 9.113281 -44.203125 12.285156 -47.597656 16.265625 -50.015625 C 20.253906 -52.441406 24.644531 -53.65625 29.4375 -53.65625 C 34.425781 -53.65625 38.894531 -52.582031 42.84375 -50.4375 C 46.800781 -48.289062 49.921875 -45.1875 52.203125 -41.125 C 54.492188 -37.070312 55.640625 -32.34375 55.640625 -26.9375 C 55.640625 -21.175781 54.546875 -16.144531 52.359375 -11.84375 C 50.179688 -7.550781 47.132812 -4.226562 43.21875 -1.875 C 39.300781 0.476562 34.8125 1.65625 29.75 1.65625 Z M 29.953125 -5.71875 C 33.765625 -5.71875 36.429688 -7.484375 37.953125 -11.015625 C 39.484375 -14.554688 40.25 -19 40.25 -24.34375 C 40.25 -30.300781 39.378906 -35.460938 37.640625 -39.828125 C 35.910156 -44.203125 33.175781 -46.390625 29.4375 -46.390625 C 25.625 -46.390625 22.847656 -44.582031 21.109375 -40.96875 C 19.378906 -37.363281 18.515625 -32.925781 18.515625 -27.65625 C 18.515625 -21.625 19.445312 -16.457031 21.3125 -12.15625 C 23.1875 -7.863281 26.066406 -5.71875 29.953125 -5.71875 Z M 29.953125 -5.71875 "/></g></g></g><g fill="#ffffff" fill-opacity="1"><g transform="translate(749.207944, 468.96791)"><g><path d="M 7.484375 -35.78125 C 6.722656 -37.925781 6.164062 -39.570312 5.8125 -40.71875 C 5.46875 -41.863281 5.160156 -43.054688 4.890625 -44.296875 L 0.828125 -44.09375 L 0.828125 -52 L 25.796875 -52 L 25.796875 -45.34375 C 23.085938 -45.269531 21.734375 -43.8125 21.734375 -40.96875 C 21.734375 -40.28125 21.941406 -39.035156 22.359375 -37.234375 L 25.890625 -24.546875 C 26.867188 -21.003906 27.597656 -17.707031 28.078125 -14.65625 L 28.1875 -14.65625 C 28.320312 -15.21875 28.597656 -16.535156 29.015625 -18.609375 C 29.429688 -20.691406 30.054688 -23.117188 30.890625 -25.890625 L 38.484375 -52 L 49.8125 -52 L 58.140625 -23.296875 C 58.617188 -21.566406 59.445312 -18.445312 60.625 -13.9375 L 60.734375 -13.9375 C 61.015625 -15.945312 61.8125 -18.960938 63.125 -22.984375 L 67.1875 -36.1875 C 67.664062 -37.851562 68.148438 -39.363281 68.640625 -40.71875 C 69.128906 -42.070312 69.648438 -43.300781 70.203125 -44.40625 L 70.203125 -44.515625 L 64.265625 -44.09375 L 64.265625 -52 L 84.03125 -52 L 84.03125 -45.34375 C 80.351562 -45.34375 77.234375 -41.597656 74.671875 -34.109375 L 62.8125 0.3125 L 51.796875 0.3125 L 44.609375 -21.84375 C 43.503906 -25.3125 42.289062 -29.570312 40.96875 -34.625 L 40.875 -34.625 C 40.113281 -30.46875 38.519531 -24.539062 36.09375 -16.84375 L 30.375 0.3125 L 20.078125 0.3125 Z M 7.484375 -35.78125 "/></g></g></g><g fill="#ffffff" fill-opacity="1"><g transform="translate(829.390961, 468.96791)"><g><path d="M 4.265625 -6.765625 C 6.898438 -6.765625 8.582031 -7.488281 9.3125 -8.9375 C 10.039062 -10.394531 10.40625 -12.753906 10.40625 -16.015625 L 10.40625 -33.484375 C 10.40625 -36.609375 10.539062 -39.554688 10.8125 -42.328125 L 3.53125 -42.015625 L 3.53125 -49.921875 C 7.90625 -49.921875 11.441406 -50.234375 14.140625 -50.859375 C 16.847656 -51.484375 18.648438 -52.210938 19.546875 -53.046875 L 24.640625 -53.046875 C 24.640625 -52.898438 24.78125 -51.164062 25.0625 -47.84375 L 25.265625 -47.84375 C 27.273438 -49.4375 29.753906 -50.800781 32.703125 -51.9375 C 35.648438 -53.082031 38.164062 -53.65625 40.25 -53.65625 C 46.5625 -53.65625 51.066406 -51.851562 53.765625 -48.25 C 56.472656 -44.644531 57.828125 -38.789062 57.828125 -30.6875 L 57.828125 -16.75 C 57.828125 -13.414062 57.6875 -10.363281 57.40625 -7.59375 C 59.695312 -7.800781 61.953125 -7.90625 64.171875 -7.90625 L 64.171875 0 L 36.921875 0 L 36.921875 -6.765625 C 39.554688 -6.765625 41.253906 -7.488281 42.015625 -8.9375 C 42.773438 -10.394531 43.15625 -12.753906 43.15625 -16.015625 L 43.0625 -30.78125 C 43.0625 -35.351562 42.414062 -38.710938 41.125 -40.859375 C 39.84375 -43.015625 37.675781 -44.09375 34.625 -44.09375 C 32.96875 -44.09375 31.269531 -43.726562 29.53125 -43 C 27.800781 -42.269531 26.347656 -41.351562 25.171875 -40.25 L 25.171875 -16.75 C 25.171875 -13.414062 25.03125 -10.363281 24.75 -7.59375 C 26.96875 -7.800781 29.222656 -7.90625 31.515625 -7.90625 L 31.515625 0 L 4.265625 0 Z M 4.265625 -6.765625 "/></g></g></g><g fill="#ffffff" fill-opacity="1"><g transform="translate(891.374073, 468.96791)"><g/></g></g><g fill="#ffffff" fill-opacity="1"><g transform="translate(914.565479, 468.96791)"><g><path d="M 4.265625 -6.765625 C 6.898438 -6.765625 8.582031 -7.488281 9.3125 -8.9375 C 10.039062 -10.394531 10.40625 -12.753906 10.40625 -16.015625 L 10.40625 -33.484375 C 10.40625 -36.609375 10.539062 -39.554688 10.8125 -42.328125 L 3.53125 -42.015625 L 3.53125 -49.921875 C 7.90625 -49.921875 11.441406 -50.234375 14.140625 -50.859375 C 16.847656 -51.484375 18.648438 -52.210938 19.546875 -53.046875 L 24.640625 -53.046875 C 24.640625 -52.898438 24.78125 -51.164062 25.0625 -47.84375 L 25.265625 -47.84375 C 27.273438 -49.4375 29.753906 -50.800781 32.703125 -51.9375 C 35.648438 -53.082031 38.164062 -53.65625 40.25 -53.65625 C 46.5625 -53.65625 51.066406 -51.851562 53.765625 -48.25 C 56.472656 -44.644531 57.828125 -38.789062 57.828125 -30.6875 L 57.828125 -16.75 C 57.828125 -13.414062 57.6875 -10.363281 57.40625 -7.59375 C 59.695312 -7.800781 61.953125 -7.90625 64.171875 -7.90625 L 64.171875 0 L 36.921875 0 L 36.921875 -6.765625 C 39.554688 -6.765625 41.253906 -7.488281 42.015625 -8.9375 C 42.773438 -10.394531 43.15625 -12.753906 43.15625 -16.015625 L 43.0625 -30.78125 C 43.0625 -35.351562 42.414062 -38.710938 41.125 -40.859375 C 39.84375 -43.015625 37.675781 -44.09375 34.625 -44.09375 C 32.96875 -44.09375 31.269531 -43.726562 29.53125 -43 C 27.800781 -42.269531 26.347656 -41.351562 25.171875 -40.25 L 25.171875 -16.75 C 25.171875 -13.414062 25.03125 -10.363281 24.75 -7.59375 C 26.96875 -7.800781 29.222656 -7.90625 31.515625 -7.90625 L 31.515625 0 L 4.265625 0 Z M 4.265625 -6.765625 "/></g></g></g><g fill="#ffffff" fill-opacity="1"><g transform="translate(976.548591, 468.96791)"><g><path d="M 4.46875 -6.765625 C 7.101562 -6.765625 8.800781 -7.488281 9.5625 -8.9375 C 10.332031 -10.394531 10.71875 -12.753906 10.71875 -16.015625 L 10.71875 -43.46875 L 3.125 -43.375 L 3.125 -52 L 10.71875 -52 L 10.71875 -55.015625 C 10.71875 -63.128906 12.484375 -69.070312 16.015625 -72.84375 C 19.546875 -76.625 24.570312 -78.515625 31.09375 -78.515625 C 35.601562 -78.515625 38.929688 -77.613281 41.078125 -75.8125 C 43.222656 -74.007812 44.296875 -71.863281 44.296875 -69.375 C 44.296875 -67.425781 43.707031 -65.773438 42.53125 -64.421875 C 41.351562 -63.078125 39.722656 -62.40625 37.640625 -62.40625 C 35.703125 -62.40625 34.195312 -62.957031 33.125 -64.0625 C 32.050781 -65.175781 31.515625 -66.597656 31.515625 -68.328125 C 31.515625 -69.234375 31.582031 -69.925781 31.71875 -70.40625 C 31.164062 -70.957031 30.367188 -71.234375 29.328125 -71.234375 C 26.554688 -71.171875 25.171875 -69.023438 25.171875 -64.796875 L 25.171875 -52 L 36.8125 -52 L 36.8125 -43.984375 L 25.265625 -43.6875 L 25.375 -16.953125 C 25.375 -13.484375 25.234375 -10.363281 24.953125 -7.59375 C 27.242188 -7.800781 29.671875 -7.90625 32.234375 -7.90625 L 32.234375 0 L 4.46875 0 Z M 4.46875 -6.765625 "/></g></g></g><g fill="#ffffff" fill-opacity="1"><g transform="translate(1010.763911, 468.96791)"><g><path d="M 24.859375 1.65625 C 14.035156 1.65625 8.625 -4.992188 8.625 -18.296875 L 8.84375 -43.375 L 1.765625 -43.375 L 1.765625 -52 C 3.984375 -52 6.082031 -52.691406 8.0625 -54.078125 C 10.039062 -55.460938 11.722656 -57.160156 13.109375 -59.171875 C 14.492188 -61.179688 15.460938 -63.125 16.015625 -65 L 23.71875 -65 L 23.609375 -52 L 36.8125 -52 L 36.8125 -43.984375 L 23.609375 -43.6875 L 23.5 -18.09375 C 23.5 -11.375 25.582031 -8.015625 29.75 -8.015625 C 33.070312 -8.015625 36.222656 -10.09375 39.203125 -14.25 L 44.203125 -9.5625 C 40.941406 -4.78125 37.679688 -1.710938 34.421875 -0.359375 C 31.160156 0.984375 27.972656 1.65625 24.859375 1.65625 Z M 24.859375 1.65625 "/></g></g></g></svg>