<svg xmlns="http://www.w3.org/2000/svg" xmlns:xlink="http://www.w3.org/1999/xlink" width="1600" zoomAndPan="magnify" viewBox="0 0 1200 675.000002" height="900" preserveAspectRatio="xMidYMid meet" version="1.0"><defs><g/><clipPath id="88e9ea516c"><path d="M 0.886719 0 L 1199.113281 0 L 1199.113281 674 L 0.886719 674 Z M 0.886719 0 " clip-rule="nonzero"/></clipPath></defs><g clip-path="url(#88e9ea516c)"><path fill="#ffffff" d="M 0.886719 0 L 1199.113281 0 L 1199.113281 674 L 0.886719 674 Z M 0.886719 0 " fill-opacity="1" fill-rule="nonzero"/><path fill="#eb7106" d="M 0.886719 0 L 1199.113281 0 L 1199.113281 674 L 0.886719 674 Z M 0.886719 0 " fill-opacity="1" fill-rule="nonzero"/></g><path fill="#ffffff" d="M 620.625 189.742188 C 563.886719 166.480469 527.605469 249.296875 581.875 283.507812 C 547.101562 268.675781 536.464844 216.589844 571.175781 191.675781 C 526.488281 192.816406 512.230469 247.871094 526.0625 282.816406 C 489.214844 213.160156 561.507812 145.808594 635.929688 193.304688 C 621.796875 173.566406 598.675781 160.703125 572.550781 160.703125 C 540.039062 160.703125 512.183594 180.617188 500.507812 208.910156 C 500.839844 205.015625 501.402344 201.113281 502.210938 197.210938 C 503.148438 192.679688 504.414062 188.160156 506.015625 183.679688 C 524.59375 131.765625 581.738281 104.742188 633.65625 123.324219 C 685.570312 141.902344 712.59375 199.046875 694.011719 250.964844 C 691.511719 257.957031 688.304688 264.5 684.511719 270.535156 C 625.527344 290.25 589.898438 262.359375 589.898438 262.359375 C 613.546875 296.441406 666.753906 282.628906 678.304688 279.316406 C 647.007812 294.457031 593.503906 290.574219 579.269531 253.574219 C 567.195312 222.179688 588.21875 181.179688 620.625 189.738281 Z M 699.949219 253.089844 C 719.703125 197.890625 690.972656 137.136719 635.777344 117.382812 C 580.578125 97.628906 519.824219 126.359375 500.070312 181.558594 C 480.316406 236.753906 509.046875 297.507812 564.246094 317.261719 C 619.441406 337.015625 680.195312 308.285156 699.949219 253.089844 Z M 699.949219 253.089844 " fill-opacity="1" fill-rule="evenodd"/><g fill="#ffffff" fill-opacity="1"><g transform="translate(284.901811, 468.968087)"><g><path d="M 28.8125 1.65625 C 24.09375 1.65625 19.789062 0.597656 15.90625 -1.515625 C 12.03125 -3.628906 8.945312 -6.675781 6.65625 -10.65625 C 4.363281 -14.644531 3.21875 -19.378906 3.21875 -24.859375 C 3.21875 -30.054688 4.363281 -34.851562 6.65625 -39.25 C 8.945312 -43.65625 12.15625 -47.15625 16.28125 -49.75 C 20.40625 -52.351562 25.066406 -53.65625 30.265625 -53.65625 C 34.492188 -53.65625 38.113281 -53 41.125 -51.6875 C 44.144531 -50.375 46.414062 -48.625 47.9375 -46.4375 C 49.46875 -44.25 50.234375 -41.910156 50.234375 -39.421875 C 50.234375 -37.265625 49.59375 -35.421875 48.3125 -33.890625 C 47.03125 -32.367188 45.28125 -31.609375 43.0625 -31.609375 C 40.769531 -31.609375 39.050781 -32.300781 37.90625 -33.6875 C 36.757812 -35.082031 36.1875 -36.644531 36.1875 -38.375 C 36.1875 -39.96875 36.601562 -41.492188 37.4375 -42.953125 C 36.8125 -44.203125 35.804688 -45.085938 34.421875 -45.609375 C 33.035156 -46.128906 31.648438 -46.390625 30.265625 -46.390625 C 26.722656 -46.390625 23.859375 -44.773438 21.671875 -41.546875 C 19.492188 -38.328125 18.40625 -33.769531 18.40625 -27.875 C 18.40625 -21.976562 19.546875 -17.125 21.828125 -13.3125 C 24.117188 -9.5 27.726562 -7.59375 32.65625 -7.59375 C 35.425781 -7.59375 38.160156 -8.316406 40.859375 -9.765625 C 43.566406 -11.222656 45.859375 -13.164062 47.734375 -15.59375 L 52.515625 -10.921875 C 49.046875 -6.140625 45.335938 -2.847656 41.390625 -1.046875 C 37.441406 0.753906 33.25 1.65625 28.8125 1.65625 Z M 28.8125 1.65625 "/></g></g></g><g fill="#ffffff" fill-opacity="1"><g transform="translate(334.613013, 468.968087)"><g><path d="M 2.59375 -6.765625 C 4.46875 -6.765625 5.835938 -7.125 6.703125 -7.84375 C 7.578125 -8.570312 8.132812 -9.5625 8.375 -10.8125 C 8.613281 -12.0625 8.734375 -13.796875 8.734375 -16.015625 L 8.734375 -58.765625 C 8.734375 -62.085938 8.875 -65.101562 9.15625 -67.8125 L 1.875 -67.5 L 1.875 -75.40625 C 6.238281 -75.40625 9.769531 -75.710938 12.46875 -76.328125 C 15.175781 -76.953125 16.984375 -77.679688 17.890625 -78.515625 L 23.5 -78.515625 L 23.5 -47.84375 C 25.507812 -49.4375 28.003906 -50.800781 30.984375 -51.9375 C 33.972656 -53.082031 36.539062 -53.65625 38.6875 -53.65625 C 44.925781 -53.65625 49.394531 -51.851562 52.09375 -48.25 C 54.800781 -44.644531 56.191406 -38.789062 56.265625 -30.6875 L 56.265625 -16.75 C 56.265625 -13.414062 56.125 -10.363281 55.84375 -7.59375 C 58.0625 -7.800781 60.316406 -7.90625 62.609375 -7.90625 L 62.609375 0 L 35.25 0 L 35.25 -6.765625 C 37.882812 -6.765625 39.582031 -7.488281 40.34375 -8.9375 C 41.113281 -10.394531 41.5 -12.753906 41.5 -16.015625 L 41.390625 -30.78125 C 41.390625 -35.351562 40.710938 -38.710938 39.359375 -40.859375 C 38.015625 -43.015625 35.882812 -44.09375 32.96875 -44.09375 C 31.300781 -44.09375 29.597656 -43.726562 27.859375 -43 C 26.128906 -42.269531 24.675781 -41.351562 23.5 -40.25 L 23.5 -16.75 C 23.5 -13.414062 23.363281 -10.363281 23.09375 -7.59375 C 25.375 -7.800781 27.625 -7.90625 29.84375 -7.90625 L 29.84375 0 L 2.59375 0 Z M 2.59375 -6.765625 "/></g></g></g><g fill="#ffffff" fill-opacity="1"><g transform="translate(395.036154, 468.968087)"><g><path d="M 28.90625 1.65625 C 23.84375 1.65625 19.367188 0.53125 15.484375 -1.71875 C 11.609375 -3.96875 8.59375 -7.171875 6.4375 -11.328125 C 4.289062 -15.492188 3.21875 -20.347656 3.21875 -25.890625 C 3.21875 -30.742188 4.3125 -35.300781 6.5 -39.5625 C 8.6875 -43.832031 11.753906 -47.25 15.703125 -49.8125 C 19.648438 -52.375 24.15625 -53.65625 29.21875 -53.65625 C 35.945312 -53.65625 41.546875 -51.679688 46.015625 -47.734375 C 50.492188 -43.785156 52.695312 -37.195312 52.625 -27.96875 L 18.515625 -27.359375 C 18.515625 -21.253906 19.675781 -16.429688 22 -12.890625 C 24.320312 -9.359375 28.046875 -7.59375 33.171875 -7.59375 C 35.597656 -7.59375 38.195312 -8.21875 40.96875 -9.46875 C 43.75 -10.71875 46.25 -12.691406 48.46875 -15.390625 L 53.140625 -11.03125 C 47.242188 -2.570312 39.164062 1.65625 28.90625 1.65625 Z M 38.265625 -34.625 C 38.054688 -42.46875 35.21875 -46.390625 29.75 -46.390625 C 26.757812 -46.390625 24.378906 -45.332031 22.609375 -43.21875 C 20.847656 -41.101562 19.691406 -38.238281 19.140625 -34.625 Z M 38.265625 -34.625 "/></g></g></g><g fill="#ffffff" fill-opacity="1"><g transform="translate(446.827366, 468.968087)"><g><path d="M 28.8125 1.65625 C 24.09375 1.65625 19.789062 0.597656 15.90625 -1.515625 C 12.03125 -3.628906 8.945312 -6.675781 6.65625 -10.65625 C 4.363281 -14.644531 3.21875 -19.378906 3.21875 -24.859375 C 3.21875 -30.054688 4.363281 -34.851562 6.65625 -39.25 C 8.945312 -43.65625 12.15625 -47.15625 16.28125 -49.75 C 20.40625 -52.351562 25.066406 -53.65625 30.265625 -53.65625 C 34.492188 -53.65625 38.113281 -53 41.125 -51.6875 C 44.144531 -50.375 46.414062 -48.625 47.9375 -46.4375 C 49.46875 -44.25 50.234375 -41.910156 50.234375 -39.421875 C 50.234375 -37.265625 49.59375 -35.421875 48.3125 -33.890625 C 47.03125 -32.367188 45.28125 -31.609375 43.0625 -31.609375 C 40.769531 -31.609375 39.050781 -32.300781 37.90625 -33.6875 C 36.757812 -35.082031 36.1875 -36.644531 36.1875 -38.375 C 36.1875 -39.96875 36.601562 -41.492188 37.4375 -42.953125 C 36.8125 -44.203125 35.804688 -45.085938 34.421875 -45.609375 C 33.035156 -46.128906 31.648438 -46.390625 30.265625 -46.390625 C 26.722656 -46.390625 23.859375 -44.773438 21.671875 -41.546875 C 19.492188 -38.328125 18.40625 -33.769531 18.40625 -27.875 C 18.40625 -21.976562 19.546875 -17.125 21.828125 -13.3125 C 24.117188 -9.5 27.726562 -7.59375 32.65625 -7.59375 C 35.425781 -7.59375 38.160156 -8.316406 40.859375 -9.765625 C 43.566406 -11.222656 45.859375 -13.164062 47.734375 -15.59375 L 52.515625 -10.921875 C 49.046875 -6.140625 45.335938 -2.847656 41.390625 -1.046875 C 37.441406 0.753906 33.25 1.65625 28.8125 1.65625 Z M 28.8125 1.65625 "/></g></g></g><g fill="#ffffff" fill-opacity="1"><g transform="translate(496.538568, 468.968087)"><g><path d="M 2.59375 -6.765625 C 5.226562 -6.765625 6.925781 -7.488281 7.6875 -8.9375 C 8.457031 -10.394531 8.84375 -12.753906 8.84375 -16.015625 L 8.84375 -58.765625 C 8.84375 -62.085938 8.976562 -65.101562 9.25 -67.8125 L 1.96875 -67.5 L 1.96875 -75.40625 C 6.34375 -75.40625 9.878906 -75.710938 12.578125 -76.328125 C 15.285156 -76.953125 17.054688 -77.679688 17.890625 -78.515625 L 23.609375 -78.515625 L 23.609375 -31.09375 L 28.59375 -31.09375 L 36.09375 -39.734375 C 38.238281 -42.160156 39.585938 -43.613281 40.140625 -44.09375 L 40.140625 -44.203125 L 34.625 -44.09375 L 34.625 -52 L 58.03125 -52 L 58.03125 -45.34375 C 54.707031 -45 51.882812 -44.082031 49.5625 -42.59375 C 47.238281 -41.101562 45.140625 -39.28125 43.265625 -37.125 L 36.609375 -29.75 L 36.609375 -29.640625 C 37.710938 -29.085938 38.765625 -28.34375 39.765625 -27.40625 C 40.773438 -26.46875 41.976562 -25.0625 43.375 -23.1875 L 50.34375 -14.046875 C 52.144531 -11.828125 53.738281 -10.054688 55.125 -8.734375 C 56.507812 -7.421875 58.101562 -6.765625 59.90625 -6.765625 L 59.90625 0 L 47.9375 0 C 45.863281 0 44.03125 -0.691406 42.4375 -2.078125 C 40.84375 -3.460938 38.832031 -5.785156 36.40625 -9.046875 C 33.769531 -12.585938 31.238281 -16.191406 28.8125 -19.859375 L 26 -23.8125 L 23.609375 -23.71875 L 23.609375 -16.75 C 23.609375 -13.414062 23.46875 -10.363281 23.1875 -7.59375 C 25.40625 -7.800781 27.660156 -7.90625 29.953125 -7.90625 L 29.953125 0 L 2.59375 0 Z M 2.59375 -6.765625 "/></g></g></g><g fill="#ffffff" fill-opacity="1"><g transform="translate(554.153714, 468.968087)"><g/></g></g><g fill="#ffffff" fill-opacity="1"><g transform="translate(577.34512, 468.968087)"><g><path d="M 24.859375 1.65625 C 14.035156 1.65625 8.625 -4.992188 8.625 -18.296875 L 8.84375 -43.375 L 1.765625 -43.375 L 1.765625 -52 C 3.984375 -52 6.082031 -52.691406 8.0625 -54.078125 C 10.039062 -55.460938 11.722656 -57.160156 13.109375 -59.171875 C 14.492188 -61.179688 15.460938 -63.125 16.015625 -65 L 23.71875 -65 L 23.609375 -52 L 36.8125 -52 L 36.8125 -43.984375 L 23.609375 -43.6875 L 23.5 -18.09375 C 23.5 -11.375 25.582031 -8.015625 29.75 -8.015625 C 33.070312 -8.015625 36.222656 -10.09375 39.203125 -14.25 L 44.203125 -9.5625 C 40.941406 -4.78125 37.679688 -1.710938 34.421875 -0.359375 C 31.160156 0.984375 27.972656 1.65625 24.859375 1.65625 Z M 24.859375 1.65625 "/></g></g></g><g fill="#ffffff" fill-opacity="1"><g transform="translate(616.13641, 468.968087)"><g><path d="M 2.59375 -6.765625 C 4.46875 -6.765625 5.835938 -7.125 6.703125 -7.84375 C 7.578125 -8.570312 8.132812 -9.5625 8.375 -10.8125 C 8.613281 -12.0625 8.734375 -13.796875 8.734375 -16.015625 L 8.734375 -58.765625 C 8.734375 -62.085938 8.875 -65.101562 9.15625 -67.8125 L 1.875 -67.5 L 1.875 -75.40625 C 6.238281 -75.40625 9.769531 -75.710938 12.46875 -76.328125 C 15.175781 -76.953125 16.984375 -77.679688 17.890625 -78.515625 L 23.5 -78.515625 L 23.5 -47.84375 C 25.507812 -49.4375 28.003906 -50.800781 30.984375 -51.9375 C 33.972656 -53.082031 36.539062 -53.65625 38.6875 -53.65625 C 44.925781 -53.65625 49.394531 -51.851562 52.09375 -48.25 C 54.800781 -44.644531 56.191406 -38.789062 56.265625 -30.6875 L 56.265625 -16.75 C 56.265625 -13.414062 56.125 -10.363281 55.84375 -7.59375 C 58.0625 -7.800781 60.316406 -7.90625 62.609375 -7.90625 L 62.609375 0 L 35.25 0 L 35.25 -6.765625 C 37.882812 -6.765625 39.582031 -7.488281 40.34375 -8.9375 C 41.113281 -10.394531 41.5 -12.753906 41.5 -16.015625 L 41.390625 -30.78125 C 41.390625 -35.351562 40.710938 -38.710938 39.359375 -40.859375 C 38.015625 -43.015625 35.882812 -44.09375 32.96875 -44.09375 C 31.300781 -44.09375 29.597656 -43.726562 27.859375 -43 C 26.128906 -42.269531 24.675781 -41.351562 23.5 -40.25 L 23.5 -16.75 C 23.5 -13.414062 23.363281 -10.363281 23.09375 -7.59375 C 25.375 -7.800781 27.625 -7.90625 29.84375 -7.90625 L 29.84375 0 L 2.59375 0 Z M 2.59375 -6.765625 "/></g></g></g><g fill="#ffffff" fill-opacity="1"><g transform="translate(676.55955, 468.968087)"><g><path d="M 18.921875 -62.296875 C 16.566406 -62.296875 14.625 -63.109375 13.09375 -64.734375 C 11.570312 -66.367188 10.8125 -68.363281 10.8125 -70.71875 C 10.8125 -73.070312 11.609375 -75.097656 13.203125 -76.796875 C 14.796875 -78.503906 16.671875 -79.359375 18.828125 -79.359375 C 21.046875 -79.359375 22.898438 -78.523438 24.390625 -76.859375 C 25.878906 -75.191406 26.625 -73.144531 26.625 -70.71875 C 26.625 -68.289062 25.910156 -66.28125 24.484375 -64.6875 C 23.066406 -63.09375 21.210938 -62.296875 18.921875 -62.296875 Z M 4.265625 -6.765625 C 6.898438 -6.765625 8.582031 -7.488281 9.3125 -8.9375 C 10.039062 -10.394531 10.40625 -12.753906 10.40625 -16.015625 L 10.40625 -33.28125 C 10.40625 -36.539062 10.539062 -39.554688 10.8125 -42.328125 L 3.53125 -42.015625 L 3.53125 -49.921875 C 7.90625 -49.921875 11.441406 -50.234375 14.140625 -50.859375 C 16.847656 -51.484375 18.648438 -52.210938 19.546875 -53.046875 L 25.171875 -53.046875 L 25.171875 -16.75 C 25.171875 -13.414062 25.03125 -10.363281 24.75 -7.59375 C 26.96875 -7.800781 29.222656 -7.90625 31.515625 -7.90625 L 31.515625 0 L 4.265625 0 Z M 4.265625 -6.765625 "/></g></g></g><g fill="#ffffff" fill-opacity="1"><g transform="translate(706.406905, 468.968087)"><g><path d="M 28.1875 1.65625 C 25.207031 1.65625 22.296875 1.273438 19.453125 0.515625 C 16.609375 -0.242188 14.390625 -1.210938 12.796875 -2.390625 L 12.6875 -2.390625 L 13 0.734375 L 5.09375 0.734375 L 4.6875 -17.15625 L 11.4375 -17.15625 C 11.78125 -13.96875 13.460938 -11.28125 16.484375 -9.09375 C 19.503906 -6.914062 23.195312 -5.828125 27.5625 -5.828125 C 29.5 -5.828125 31.175781 -6.273438 32.59375 -7.171875 C 34.019531 -8.078125 34.734375 -9.363281 34.734375 -11.03125 C 34.734375 -12.269531 34.28125 -13.304688 33.375 -14.140625 C 32.476562 -14.972656 31.40625 -15.664062 30.15625 -16.21875 C 28.90625 -16.78125 26.410156 -17.785156 22.671875 -19.234375 C 18.234375 -20.972656 14.90625 -22.394531 12.6875 -23.5 C 10.46875 -24.613281 8.472656 -26.257812 6.703125 -28.4375 C 4.941406 -30.625 4.0625 -33.453125 4.0625 -36.921875 C 4.0625 -39.765625 4.769531 -42.453125 6.1875 -44.984375 C 7.601562 -47.515625 9.785156 -49.59375 12.734375 -51.21875 C 15.679688 -52.84375 19.304688 -53.65625 23.609375 -53.65625 C 25.617188 -53.65625 27.800781 -53.34375 30.15625 -52.71875 C 32.519531 -52.101562 34.5 -51.238281 36.09375 -50.125 L 36.1875 -50.125 L 36.09375 -53.140625 L 43.984375 -53.140625 L 43.984375 -34.734375 L 37.234375 -34.734375 C 36.609375 -38.335938 35.007812 -41.179688 32.4375 -43.265625 C 29.875 -45.347656 26.722656 -46.390625 22.984375 -46.390625 C 21.046875 -46.390625 19.414062 -45.9375 18.09375 -45.03125 C 16.78125 -44.132812 16.125 -42.75 16.125 -40.875 C 16.125 -38.925781 16.882812 -37.484375 18.40625 -36.546875 C 19.9375 -35.617188 22.503906 -34.566406 26.109375 -33.390625 C 26.523438 -33.316406 27.425781 -33.035156 28.8125 -32.546875 C 34.695312 -30.472656 39.21875 -28.046875 42.375 -25.265625 C 45.53125 -22.492188 47.109375 -18.859375 47.109375 -14.359375 C 47.109375 -10.890625 46.222656 -7.957031 44.453125 -5.5625 C 42.691406 -3.164062 40.367188 -1.363281 37.484375 -0.15625 C 34.609375 1.050781 31.507812 1.65625 28.1875 1.65625 Z M 28.1875 1.65625 "/></g></g></g><g fill="#ffffff" fill-opacity="1"><g transform="translate(752.686161, 468.968087)"><g/></g></g><g fill="#ffffff" fill-opacity="1"><g transform="translate(775.877566, 468.968087)"><g><path d="M 4.265625 -6.765625 C 6.898438 -6.765625 8.582031 -7.488281 9.3125 -8.9375 C 10.039062 -10.394531 10.40625 -12.753906 10.40625 -16.015625 L 10.40625 -33.484375 C 10.40625 -36.609375 10.539062 -39.554688 10.8125 -42.328125 L 3.53125 -42.015625 L 3.53125 -49.921875 C 7.90625 -49.921875 11.441406 -50.234375 14.140625 -50.859375 C 16.847656 -51.484375 18.648438 -52.210938 19.546875 -53.046875 L 24.640625 -53.046875 C 24.640625 -52.898438 24.78125 -51.164062 25.0625 -47.84375 L 25.265625 -47.84375 C 27.273438 -49.4375 29.753906 -50.800781 32.703125 -51.9375 C 35.648438 -53.082031 38.164062 -53.65625 40.25 -53.65625 C 46.5625 -53.65625 51.066406 -51.851562 53.765625 -48.25 C 56.472656 -44.644531 57.828125 -38.789062 57.828125 -30.6875 L 57.828125 -16.75 C 57.828125 -13.414062 57.6875 -10.363281 57.40625 -7.59375 C 59.695312 -7.800781 61.953125 -7.90625 64.171875 -7.90625 L 64.171875 0 L 36.921875 0 L 36.921875 -6.765625 C 39.554688 -6.765625 41.253906 -7.488281 42.015625 -8.9375 C 42.773438 -10.394531 43.15625 -12.753906 43.15625 -16.015625 L 43.0625 -30.78125 C 43.0625 -35.351562 42.414062 -38.710938 41.125 -40.859375 C 39.84375 -43.015625 37.675781 -44.09375 34.625 -44.09375 C 32.96875 -44.09375 31.269531 -43.726562 29.53125 -43 C 27.800781 -42.269531 26.347656 -41.351562 25.171875 -40.25 L 25.171875 -16.75 C 25.171875 -13.414062 25.03125 -10.363281 24.75 -7.59375 C 26.96875 -7.800781 29.222656 -7.90625 31.515625 -7.90625 L 31.515625 0 L 4.265625 0 Z M 4.265625 -6.765625 "/></g></g></g><g fill="#ffffff" fill-opacity="1"><g transform="translate(837.860679, 468.968087)"><g><path d="M 4.46875 -6.765625 C 7.101562 -6.765625 8.800781 -7.488281 9.5625 -8.9375 C 10.332031 -10.394531 10.71875 -12.753906 10.71875 -16.015625 L 10.71875 -43.46875 L 3.125 -43.375 L 3.125 -52 L 10.71875 -52 L 10.71875 -55.015625 C 10.71875 -63.128906 12.484375 -69.070312 16.015625 -72.84375 C 19.546875 -76.625 24.570312 -78.515625 31.09375 -78.515625 C 35.601562 -78.515625 38.929688 -77.613281 41.078125 -75.8125 C 43.222656 -74.007812 44.296875 -71.863281 44.296875 -69.375 C 44.296875 -67.425781 43.707031 -65.773438 42.53125 -64.421875 C 41.351562 -63.078125 39.722656 -62.40625 37.640625 -62.40625 C 35.703125 -62.40625 34.195312 -62.957031 33.125 -64.0625 C 32.050781 -65.175781 31.515625 -66.597656 31.515625 -68.328125 C 31.515625 -69.234375 31.582031 -69.925781 31.71875 -70.40625 C 31.164062 -70.957031 30.367188 -71.234375 29.328125 -71.234375 C 26.554688 -71.171875 25.171875 -69.023438 25.171875 -64.796875 L 25.171875 -52 L 36.8125 -52 L 36.8125 -43.984375 L 25.265625 -43.6875 L 25.375 -16.953125 C 25.375 -13.484375 25.234375 -10.363281 24.953125 -7.59375 C 27.242188 -7.800781 29.671875 -7.90625 32.234375 -7.90625 L 32.234375 0 L 4.46875 0 Z M 4.46875 -6.765625 "/></g></g></g><g fill="#ffffff" fill-opacity="1"><g transform="translate(872.075999, 468.968087)"><g><path d="M 24.859375 1.65625 C 14.035156 1.65625 8.625 -4.992188 8.625 -18.296875 L 8.84375 -43.375 L 1.765625 -43.375 L 1.765625 -52 C 3.984375 -52 6.082031 -52.691406 8.0625 -54.078125 C 10.039062 -55.460938 11.722656 -57.160156 13.109375 -59.171875 C 14.492188 -61.179688 15.460938 -63.125 16.015625 -65 L 23.71875 -65 L 23.609375 -52 L 36.8125 -52 L 36.8125 -43.984375 L 23.609375 -43.6875 L 23.5 -18.09375 C 23.5 -11.375 25.582031 -8.015625 29.75 -8.015625 C 33.070312 -8.015625 36.222656 -10.09375 39.203125 -14.25 L 44.203125 -9.5625 C 40.941406 -4.78125 37.679688 -1.710938 34.421875 -0.359375 C 31.160156 0.984375 27.972656 1.65625 24.859375 1.65625 Z M 24.859375 1.65625 "/></g></g></g></svg>