<svg xmlns="http://www.w3.org/2000/svg" xmlns:xlink="http://www.w3.org/1999/xlink" width="500" zoomAndPan="magnify" viewBox="0 0 375 374.999991" height="500" preserveAspectRatio="xMidYMid meet" version="1.0"><path fill="#eb7106" d="M 223.578125 139.285156 C 124.339844 98.59375 60.871094 243.457031 155.800781 303.296875 C 94.976562 277.355469 76.367188 186.242188 137.082031 142.667969 C 58.921875 144.664062 33.980469 240.964844 58.171875 302.085938 C -6.277344 180.246094 120.175781 62.4375 250.355469 145.511719 C 225.632812 110.992188 185.1875 88.492188 139.488281 88.492188 C 82.625 88.492188 33.894531 123.324219 13.472656 172.816406 C 14.058594 166 15.042969 159.171875 16.453125 152.351562 C 18.089844 144.421875 20.304688 136.515625 23.109375 128.679688 C 55.605469 37.875 155.566406 -9.398438 246.375 23.105469 C 337.179688 55.601562 384.453125 155.558594 351.949219 246.371094 C 347.574219 258.601562 341.96875 270.046875 335.332031 280.605469 C 232.160156 315.085938 169.835938 266.304688 169.835938 266.304688 C 211.199219 325.917969 304.265625 301.757812 324.472656 295.96875 C 269.730469 322.445312 176.140625 315.65625 151.246094 250.9375 C 130.125 196.023438 166.898438 124.308594 223.582031 139.277344 Z M 362.332031 250.085938 C 396.886719 153.539062 346.628906 47.269531 250.082031 12.714844 C 153.535156 -21.835938 47.261719 28.417969 12.710938 124.964844 C -21.839844 221.511719 28.414062 327.785156 124.960938 362.339844 C 221.507812 396.890625 327.78125 346.632812 362.332031 250.085938 Z M 362.332031 250.085938 " fill-opacity="1" fill-rule="evenodd"/></svg>